{
    "accessors": [
        {
            "bufferView": 0,
            "componentType": 5126,
            "count": 146,
            "max": [
                1.224646790546622e-18,
                0.009999999776482582,
                0.02500000037252903
            ],
            "min": [
                -0.009999999776482582,
                -0.009999999776482582,
                0.0
            ],
            "name": "mesh0_coord_accessor",
            "type": "VEC3"
        },
        {
            "bufferView": 1,
            "componentType": 5126,
            "count": 146,
            "max": [
                1.0,
                1.0,
                -0.0
            ],
            "min": [
                -1.2246468525851679e-16,
                -1.0,
                -0.0
            ],
            "name": "mesh0_norm_accessor",
            "type": "VEC3"
        },
        {
            "bufferView": 2,
            "componentType": 5126,
            "count": 146,
            "max": [
                1.0,
                1.0
            ],
            "min": [
                0.0,
                0.0
            ],
            "name": "mesh0_texcoord_accessor",
            "type": "VEC2"
        },
        {
            "bufferView": 3,
            "componentType": 5125,
            "count": 432,
            "max": [
                145
            ],
            "min": [
                0
            ],
            "name": "mesh0_idx_accessor",
            "type": "SCALAR"
        },
        {
            "bufferView": 4,
            "componentType": 5126,
            "count": 146,
            "max": [
                0.009999999776482582,
                0.009999999776482582,
                0.02500000037252903
            ],
            "min": [
                0.0,
                -0.009999999776482582,
                0.0
            ],
            "name": "mesh1_coord_accessor",
            "type": "VEC3"
        },
        {
            "bufferView": 5,
            "componentType": 5126,
            "count": 146,
            "max": [
                -0.0,
                1.0,
                -0.0
            ],
            "min": [
                -1.0,
                -1.0,
                -0.0
            ],
            "name": "mesh1_norm_accessor",
            "type": "VEC3"
        },
        {
            "bufferView": 6,
            "componentType": 5126,
            "count": 146,
            "max": [
                1.0,
                1.0
            ],
            "min": [
                0.0,
                0.0
            ],
            "name": "mesh1_texcoord_accessor",
            "type": "VEC2"
        },
        {
            "bufferView": 7,
            "componentType": 5125,
            "count": 432,
            "max": [
                145
            ],
            "min": [
                0
            ],
            "name": "mesh1_idx_accessor",
            "type": "SCALAR"
        },
        {
            "bufferView": 8,
            "componentType": 5126,
            "count": 148,
            "max": [
                0.030867382884025574,
                0.019305748865008354,
                0.02500000037252903
            ],
            "min": [
                -0.02475935034453869,
                -0.02235976606607437,
                0.02500000037252903
            ],
            "name": "mesh2_coord_accessor",
            "type": "VEC3"
        },
        {
            "bufferView": 9,
            "componentType": 5126,
            "count": 148,
            "max": [
                0.0,
                0.0,
                1.0
            ],
            "min": [
                0.0,
                0.0,
                1.0
            ],
            "name": "mesh2_norm_accessor",
            "type": "VEC3"
        },
        {
            "bufferView": 10,
            "componentType": 5126,
            "count": 148,
            "max": [
                1.0,
                1.0
            ],
            "min": [
                0.0,
                0.0
            ],
            "name": "mesh2_texcoord_accessor",
            "type": "VEC2"
        },
        {
            "bufferView": 11,
            "componentType": 5125,
            "count": 444,
            "max": [
                147
            ],
            "min": [
                0
            ],
            "name": "mesh2_idx_accessor",
            "type": "SCALAR"
        },
        {
            "bufferView": 12,
            "componentType": 5126,
            "count": 148,
            "max": [
                0.030867382884025574,
                0.019305748865008354,
                0.0
            ],
            "min": [
                -0.02475935034453869,
                -0.02235976606607437,
                0.0
            ],
            "name": "mesh3_coord_accessor",
            "type": "VEC3"
        },
        {
            "bufferView": 13,
            "componentType": 5126,
            "count": 148,
            "max": [
                -0.0,
                -0.0,
                -1.0
            ],
            "min": [
                -0.0,
                -0.0,
                -1.0
            ],
            "name": "mesh3_norm_accessor",
            "type": "VEC3"
        },
        {
            "bufferView": 14,
            "componentType": 5126,
            "count": 148,
            "max": [
                1.0,
                1.0
            ],
            "min": [
                0.0,
                0.0
            ],
            "name": "mesh3_texcoord_accessor",
            "type": "VEC2"
        },
        {
            "bufferView": 15,
            "componentType": 5125,
            "count": 444,
            "max": [
                147
            ],
            "min": [
                0
            ],
            "name": "mesh3_idx_accessor",
            "type": "SCALAR"
        },
        {
            "bufferView": 16,
            "componentType": 5126,
            "count": 4,
            "max": [
                0.030867382884025574,
                0.019305748865008354,
                0.02500000037252903
            ],
            "min": [
                -0.02475935034453869,
                0.019305748865008354,
                0.0
            ],
            "name": "mesh4_coord_accessor",
            "type": "VEC3"
        },
        {
            "bufferView": 17,
            "componentType": 5126,
            "count": 4,
            "max": [
                0.0,
                1.0,
                0.0
            ],
            "min": [
                0.0,
                1.0,
                0.0
            ],
            "name": "mesh4_norm_accessor",
            "type": "VEC3"
        },
        {
            "bufferView": 18,
            "componentType": 5126,
            "count": 4,
            "max": [
                1.0,
                1.0
            ],
            "min": [
                0.0,
                0.0
            ],
            "name": "mesh4_texcoord_accessor",
            "type": "VEC2"
        },
        {
            "bufferView": 19,
            "componentType": 5125,
            "count": 6,
            "max": [
                3
            ],
            "min": [
                0
            ],
            "name": "mesh4_idx_accessor",
            "type": "SCALAR"
        },
        {
            "bufferView": 20,
            "componentType": 5126,
            "count": 4,
            "max": [
                -0.02475935034453869,
                0.019305748865008354,
                0.02500000037252903
            ],
            "min": [
                -0.02475935034453869,
                -0.02235976606607437,
                0.0
            ],
            "name": "mesh5_coord_accessor",
            "type": "VEC3"
        },
        {
            "bufferView": 21,
            "componentType": 5126,
            "count": 4,
            "max": [
                -1.0,
                -0.0,
                -0.0
            ],
            "min": [
                -1.0,
                -0.0,
                -0.0
            ],
            "name": "mesh5_norm_accessor",
            "type": "VEC3"
        },
        {
            "bufferView": 22,
            "componentType": 5126,
            "count": 4,
            "max": [
                1.0,
                1.0
            ],
            "min": [
                0.0,
                0.0
            ],
            "name": "mesh5_texcoord_accessor",
            "type": "VEC2"
        },
        {
            "bufferView": 23,
            "componentType": 5125,
            "count": 6,
            "max": [
                3
            ],
            "min": [
                0
            ],
            "name": "mesh5_idx_accessor",
            "type": "SCALAR"
        },
        {
            "bufferView": 24,
            "componentType": 5126,
            "count": 4,
            "max": [
                0.030867382884025574,
                -0.02235976606607437,
                0.02500000037252903
            ],
            "min": [
                -0.02475935034453869,
                -0.02235976606607437,
                0.0
            ],
            "name": "mesh6_coord_accessor",
            "type": "VEC3"
        },
        {
            "bufferView": 25,
            "componentType": 5126,
            "count": 4,
            "max": [
                -0.0,
                -1.0,
                -0.0
            ],
            "min": [
                -0.0,
                -1.0,
                -0.0
            ],
            "name": "mesh6_norm_accessor",
            "type": "VEC3"
        },
        {
            "bufferView": 26,
            "componentType": 5126,
            "count": 4,
            "max": [
                1.0,
                1.0
            ],
            "min": [
                0.0,
                0.0
            ],
            "name": "mesh6_texcoord_accessor",
            "type": "VEC2"
        },
        {
            "bufferView": 27,
            "componentType": 5125,
            "count": 6,
            "max": [
                3
            ],
            "min": [
                0
            ],
            "name": "mesh6_idx_accessor",
            "type": "SCALAR"
        },
        {
            "bufferView": 28,
            "componentType": 5126,
            "count": 4,
            "max": [
                0.030867382884025574,
                0.019305748865008354,
                0.02500000037252903
            ],
            "min": [
                0.030867382884025574,
                -0.02235976606607437,
                0.0
            ],
            "name": "mesh7_coord_accessor",
            "type": "VEC3"
        },
        {
            "bufferView": 29,
            "componentType": 5126,
            "count": 4,
            "max": [
                1.0,
                0.0,
                0.0
            ],
            "min": [
                1.0,
                0.0,
                0.0
            ],
            "name": "mesh7_norm_accessor",
            "type": "VEC3"
        },
        {
            "bufferView": 30,
            "componentType": 5126,
            "count": 4,
            "max": [
                1.0,
                1.0
            ],
            "min": [
                0.0,
                0.0
            ],
            "name": "mesh7_texcoord_accessor",
            "type": "VEC2"
        },
        {
            "bufferView": 31,
            "componentType": 5125,
            "count": 6,
            "max": [
                3
            ],
            "min": [
                0
            ],
            "name": "mesh7_idx_accessor",
            "type": "SCALAR"
        }
    ],
    "asset": {
        "generator": "ONSHAPE BY PTC INC, 1.207",
        "version": "2.0"
    },
    "bufferViews": [
        {
            "buffer": 0,
            "byteLength": 1752,
            "name": "mesh0_coord_bufferView",
            "target": 34962
        },
        {
            "buffer": 0,
            "byteLength": 1752,
            "byteOffset": 1752,
            "name": "mesh0_norm_bufferView",
            "target": 34962
        },
        {
            "buffer": 0,
            "byteLength": 1168,
            "byteOffset": 3504,
            "name": "mesh0_texcoord_bufferView",
            "target": 34962
        },
        {
            "buffer": 0,
            "byteLength": 1728,
            "byteOffset": 4672,
            "name": "mesh0_idx_bufferView",
            "target": 34963
        },
        {
            "buffer": 0,
            "byteLength": 1752,
            "byteOffset": 6400,
            "name": "mesh1_coord_bufferView",
            "target": 34962
        },
        {
            "buffer": 0,
            "byteLength": 1752,
            "byteOffset": 8152,
            "name": "mesh1_norm_bufferView",
            "target": 34962
        },
        {
            "buffer": 0,
            "byteLength": 1168,
            "byteOffset": 9904,
            "name": "mesh1_texcoord_bufferView",
            "target": 34962
        },
        {
            "buffer": 0,
            "byteLength": 1728,
            "byteOffset": 11072,
            "name": "mesh1_idx_bufferView",
            "target": 34963
        },
        {
            "buffer": 0,
            "byteLength": 1776,
            "byteOffset": 12800,
            "name": "mesh2_coord_bufferView",
            "target": 34962
        },
        {
            "buffer": 0,
            "byteLength": 1776,
            "byteOffset": 14576,
            "name": "mesh2_norm_bufferView",
            "target": 34962
        },
        {
            "buffer": 0,
            "byteLength": 1184,
            "byteOffset": 16352,
            "name": "mesh2_texcoord_bufferView",
            "target": 34962
        },
        {
            "buffer": 0,
            "byteLength": 1776,
            "byteOffset": 17536,
            "name": "mesh2_idx_bufferView",
            "target": 34963
        },
        {
            "buffer": 0,
            "byteLength": 1776,
            "byteOffset": 19312,
            "name": "mesh3_coord_bufferView",
            "target": 34962
        },
        {
            "buffer": 0,
            "byteLength": 1776,
            "byteOffset": 21088,
            "name": "mesh3_norm_bufferView",
            "target": 34962
        },
        {
            "buffer": 0,
            "byteLength": 1184,
            "byteOffset": 22864,
            "name": "mesh3_texcoord_bufferView",
            "target": 34962
        },
        {
            "buffer": 0,
            "byteLength": 1776,
            "byteOffset": 24048,
            "name": "mesh3_idx_bufferView",
            "target": 34963
        },
        {
            "buffer": 0,
            "byteLength": 48,
            "byteOffset": 25824,
            "name": "mesh4_coord_bufferView",
            "target": 34962
        },
        {
            "buffer": 0,
            "byteLength": 48,
            "byteOffset": 25872,
            "name": "mesh4_norm_bufferView",
            "target": 34962
        },
        {
            "buffer": 0,
            "byteLength": 32,
            "byteOffset": 25920,
            "name": "mesh4_texcoord_bufferView",
            "target": 34962
        },
        {
            "buffer": 0,
            "byteLength": 24,
            "byteOffset": 25952,
            "name": "mesh4_idx_bufferView",
            "target": 34963
        },
        {
            "buffer": 0,
            "byteLength": 48,
            "byteOffset": 25976,
            "name": "mesh5_coord_bufferView",
            "target": 34962
        },
        {
            "buffer": 0,
            "byteLength": 48,
            "byteOffset": 26024,
            "name": "mesh5_norm_bufferView",
            "target": 34962
        },
        {
            "buffer": 0,
            "byteLength": 32,
            "byteOffset": 26072,
            "name": "mesh5_texcoord_bufferView",
            "target": 34962
        },
        {
            "buffer": 0,
            "byteLength": 24,
            "byteOffset": 26104,
            "name": "mesh5_idx_bufferView",
            "target": 34963
        },
        {
            "buffer": 0,
            "byteLength": 48,
            "byteOffset": 26128,
            "name": "mesh6_coord_bufferView",
            "target": 34962
        },
        {
            "buffer": 0,
            "byteLength": 48,
            "byteOffset": 26176,
            "name": "mesh6_norm_bufferView",
            "target": 34962
        },
        {
            "buffer": 0,
            "byteLength": 32,
            "byteOffset": 26224,
            "name": "mesh6_texcoord_bufferView",
            "target": 34962
        },
        {
            "buffer": 0,
            "byteLength": 24,
            "byteOffset": 26256,
            "name": "mesh6_idx_bufferView",
            "target": 34963
        },
        {
            "buffer": 0,
            "byteLength": 48,
            "byteOffset": 26280,
            "name": "mesh7_coord_bufferView",
            "target": 34962
        },
        {
            "buffer": 0,
            "byteLength": 48,
            "byteOffset": 26328,
            "name": "mesh7_norm_bufferView",
            "target": 34962
        },
        {
            "buffer": 0,
            "byteLength": 32,
            "byteOffset": 26376,
            "name": "mesh7_texcoord_bufferView",
            "target": 34962
        },
        {
            "buffer": 0,
            "byteLength": 24,
            "byteOffset": 26408,
            "name": "mesh7_idx_bufferView",
            "target": 34963
        }
    ],
    "buffers": [
        {
            "byteLength": 26432,
            "name": "Total_buffer",
            "uri": "data:application/octet-stream;base64,"
        }
    ],
    "extensionsUsed": [
        "PTC_onshape_metadata"
    ],
    "materials": [
        {
            "doubleSided": true,
            "name": "0.615686_0.811765_0.929412_0.000000_0.000000",
            "pbrMetallicRoughness": {
                "baseColorFactor": [
                    0.615686297416687,
                    0.8117647171020508,
                    0.929411768913269,
                    1.0
                ],
                "metallicFactor": 0.0
            }
        }
    ],
    "meshes": [
        {
            "name": "mesh0_mesh",
            "primitives": [
                {
                    "attributes": {
                        "NORMAL": 1,
                        "POSITION": 0,
                        "TEXCOORD_0": 2
                    },
                    "indices": 3,
                    "material": 0
                },
                {
                    "attributes": {
                        "NORMAL": 5,
                        "POSITION": 4,
                        "TEXCOORD_0": 6
                    },
                    "indices": 7,
                    "material": 0
                },
                {
                    "attributes": {
                        "NORMAL": 9,
                        "POSITION": 8,
                        "TEXCOORD_0": 10
                    },
                    "indices": 11,
                    "material": 0
                },
                {
                    "attributes": {
                        "NORMAL": 13,
                        "POSITION": 12,
                        "TEXCOORD_0": 14
                    },
                    "indices": 15,
                    "material": 0
                },
                {
                    "attributes": {
                        "NORMAL": 17,
                        "POSITION": 16,
                        "TEXCOORD_0": 18
                    },
                    "indices": 19,
                    "material": 0
                },
                {
                    "attributes": {
                        "NORMAL": 21,
                        "POSITION": 20,
                        "TEXCOORD_0": 22
                    },
                    "indices": 23,
                    "material": 0
                },
                {
                    "attributes": {
                        "NORMAL": 25,
                        "POSITION": 24,
                        "TEXCOORD_0": 26
                    },
                    "indices": 27,
                    "material": 0
                },
                {
                    "attributes": {
                        "NORMAL": 29,
                        "POSITION": 28,
                        "TEXCOORD_0": 30
                    },
                    "indices": 31,
                    "material": 0
                }
            ]
        }
    ],
    "nodes": [
        {
            "extensions": {
                "PTC_onshape_metadata": {
                    "entity_type": "Body",
                    "id": [
                        "JHD"
                    ]
                }
            },
            "mesh": 0,
            "name": "Part 1"
        }
    ],
    "scene": 0,
    "scenes": [
        {
            "name": "Root",
            "nodes": [
                0
            ]
        }
    ]
}