ISO-10303-21;
HEADER;
/* Generated by software containing ST-Developer
 * from STEP Tools, Inc. (www.steptools.com) 
 */
/* OPTION: using custom renumber hook */

FILE_DESCRIPTION(
/* description */ ('STEP AP242 Edition 2',
'CAx-IF Rec.Pracs.---Representation and Presentation of Product Manufa
cturing Information (PMI)---4.0---2014-10-13',
'CAx-IF Rec.Pracs.---3D Tessellated Geometry---0.4---2014-09-14','2;1',
'CAx-IF Rec.Pracs.---User Defined Attributes---1.5---2016-08-15'),
/* implementation_level */ '2;1');

FILE_NAME(
/* name */ '6933410b74787ddfbdfe3241',
/* time_stamp */ '2025-12-05T20:31:08Z',
/* author */ (''),
/* organization */ (''),
/* preprocessor_version */ 'ST-DEVELOPER v20',
/* originating_system */ 'ONSHAPE BY PTC INC, 1.207',
/* authorisation */ '  ');

FILE_SCHEMA (('AP242_MANAGED_MODEL_BASED_3D_ENGINEERING_MIM_LF { 1 0 10303 442 3 1 4 }'));
ENDSEC;

DATA;
#10=SHAPE_REPRESENTATION_RELATIONSHIP('','',#855,#11);
#11=ADVANCED_BREP_SHAPE_REPRESENTATION('',(#853),#1268);
#12=TOROIDAL_SURFACE('',#931,0.009,0.0005);
#13=TOROIDAL_SURFACE('',#932,0.0114,0.0005);
#14=CONICAL_SURFACE('',#924,0.0119,0.785398163397448);
#15=CONICAL_SURFACE('',#927,0.00375,0.785398163397448);
#16=CONICAL_SURFACE('',#928,0.00075,0.785398163397448);
#17=CONICAL_SURFACE('',#929,0.00075,0.785398163397448);
#18=CONICAL_SURFACE('',#930,0.002575,0.785398163397451);
#19=B_SPLINE_CURVE_WITH_KNOTS('',3,(#1175,#1176,#1177,#1178),
 .UNSPECIFIED.,.F.,.F.,(4,4),(0.,0.00206252315163926),.UNSPECIFIED.);
#20=B_SPLINE_CURVE_WITH_KNOTS('',3,(#1181,#1182,#1183,#1184),
 .UNSPECIFIED.,.F.,.F.,(4,4),(4.81482486096809E-34,0.00206516307806936),
 .UNSPECIFIED.);
#21=CYLINDRICAL_SURFACE('',#862,0.0119);
#22=CYLINDRICAL_SURFACE('',#868,0.0095);
#23=CYLINDRICAL_SURFACE('',#875,0.003075);
#24=CYLINDRICAL_SURFACE('',#880,0.001);
#25=CYLINDRICAL_SURFACE('',#885,0.00425);
#26=CYLINDRICAL_SURFACE('',#890,0.001);
#27=CYLINDRICAL_SURFACE('',#910,0.00075);
#28=CYLINDRICAL_SURFACE('',#911,0.00075);
#29=CYLINDRICAL_SURFACE('',#912,0.00115);
#30=CYLINDRICAL_SURFACE('',#915,0.00115);
#31=CYLINDRICAL_SURFACE('',#918,0.001);
#32=CYLINDRICAL_SURFACE('',#921,0.001);
#33=CYLINDRICAL_SURFACE('',#925,0.00145);
#34=CYLINDRICAL_SURFACE('',#926,0.00145);
#35=LINE('',#1118,#58);
#36=LINE('',#1121,#59);
#37=LINE('',#1123,#60);
#38=LINE('',#1125,#61);
#39=LINE('',#1126,#62);
#40=LINE('',#1129,#63);
#41=LINE('',#1131,#64);
#42=LINE('',#1133,#65);
#43=LINE('',#1137,#66);
#44=LINE('',#1186,#67);
#45=LINE('',#1187,#68);
#46=LINE('',#1203,#69);
#47=LINE('',#1207,#70);
#48=LINE('',#1209,#71);
#49=LINE('',#1211,#72);
#50=LINE('',#1217,#73);
#51=LINE('',#1219,#74);
#52=LINE('',#1226,#75);
#53=LINE('',#1227,#76);
#54=LINE('',#1229,#77);
#55=LINE('',#1231,#78);
#56=LINE('',#1235,#79);
#57=LINE('',#1239,#80);
#58=VECTOR('',#943,1.);
#59=VECTOR('',#944,1.);
#60=VECTOR('',#945,1.);
#61=VECTOR('',#946,1.);
#62=VECTOR('',#947,1.);
#63=VECTOR('',#948,1.);
#64=VECTOR('',#949,1.);
#65=VECTOR('',#950,1.);
#66=VECTOR('',#953,1.);
#67=VECTOR('',#1000,1.);
#68=VECTOR('',#1001,1.);
#69=VECTOR('',#1024,1.);
#70=VECTOR('',#1027,1.);
#71=VECTOR('',#1030,1.);
#72=VECTOR('',#1031,1.);
#73=VECTOR('',#1038,1.);
#74=VECTOR('',#1041,1.);
#75=VECTOR('',#1048,1.);
#76=VECTOR('',#1049,1.);
#77=VECTOR('',#1052,1.);
#78=VECTOR('',#1053,1.);
#79=VECTOR('',#1058,1.);
#80=VECTOR('',#1063,1.);
#81=ORIENTED_EDGE('',*,*,#201,.T.);
#82=ORIENTED_EDGE('',*,*,#202,.F.);
#83=ORIENTED_EDGE('',*,*,#203,.F.);
#84=ORIENTED_EDGE('',*,*,#204,.F.);
#85=ORIENTED_EDGE('',*,*,#205,.T.);
#86=ORIENTED_EDGE('',*,*,#206,.T.);
#87=ORIENTED_EDGE('',*,*,#207,.F.);
#88=ORIENTED_EDGE('',*,*,#208,.F.);
#89=ORIENTED_EDGE('',*,*,#209,.T.);
#90=ORIENTED_EDGE('',*,*,#210,.T.);
#91=ORIENTED_EDGE('',*,*,#211,.F.);
#92=ORIENTED_EDGE('',*,*,#212,.F.);
#93=ORIENTED_EDGE('',*,*,#213,.T.);
#94=ORIENTED_EDGE('',*,*,#214,.T.);
#95=ORIENTED_EDGE('',*,*,#215,.T.);
#96=ORIENTED_EDGE('',*,*,#216,.T.);
#97=ORIENTED_EDGE('',*,*,#217,.F.);
#98=ORIENTED_EDGE('',*,*,#218,.T.);
#99=ORIENTED_EDGE('',*,*,#217,.T.);
#100=ORIENTED_EDGE('',*,*,#219,.T.);
#101=ORIENTED_EDGE('',*,*,#220,.F.);
#102=ORIENTED_EDGE('',*,*,#221,.F.);
#103=ORIENTED_EDGE('',*,*,#222,.F.);
#104=ORIENTED_EDGE('',*,*,#223,.T.);
#105=ORIENTED_EDGE('',*,*,#222,.T.);
#106=ORIENTED_EDGE('',*,*,#224,.T.);
#107=ORIENTED_EDGE('',*,*,#225,.F.);
#108=ORIENTED_EDGE('',*,*,#226,.T.);
#109=ORIENTED_EDGE('',*,*,#225,.T.);
#110=ORIENTED_EDGE('',*,*,#227,.T.);
#111=ORIENTED_EDGE('',*,*,#228,.T.);
#112=ORIENTED_EDGE('',*,*,#229,.T.);
#113=ORIENTED_EDGE('',*,*,#230,.T.);
#114=ORIENTED_EDGE('',*,*,#213,.F.);
#115=ORIENTED_EDGE('',*,*,#231,.F.);
#116=ORIENTED_EDGE('',*,*,#230,.F.);
#117=ORIENTED_EDGE('',*,*,#232,.T.);
#118=ORIENTED_EDGE('',*,*,#231,.T.);
#119=ORIENTED_EDGE('',*,*,#212,.T.);
#120=ORIENTED_EDGE('',*,*,#233,.T.);
#121=ORIENTED_EDGE('',*,*,#234,.F.);
#122=ORIENTED_EDGE('',*,*,#235,.T.);
#123=ORIENTED_EDGE('',*,*,#234,.T.);
#124=ORIENTED_EDGE('',*,*,#236,.T.);
#125=ORIENTED_EDGE('',*,*,#237,.F.);
#126=ORIENTED_EDGE('',*,*,#238,.F.);
#127=ORIENTED_EDGE('',*,*,#239,.T.);
#128=ORIENTED_EDGE('',*,*,#240,.T.);
#129=ORIENTED_EDGE('',*,*,#209,.F.);
#130=ORIENTED_EDGE('',*,*,#241,.F.);
#131=ORIENTED_EDGE('',*,*,#242,.T.);
#132=ORIENTED_EDGE('',*,*,#238,.T.);
#133=ORIENTED_EDGE('',*,*,#208,.T.);
#134=ORIENTED_EDGE('',*,*,#243,.F.);
#135=ORIENTED_EDGE('',*,*,#244,.T.);
#136=ORIENTED_EDGE('',*,*,#241,.T.);
#137=ORIENTED_EDGE('',*,*,#211,.T.);
#138=ORIENTED_EDGE('',*,*,#245,.F.);
#139=ORIENTED_EDGE('',*,*,#240,.F.);
#140=ORIENTED_EDGE('',*,*,#246,.T.);
#141=ORIENTED_EDGE('',*,*,#245,.T.);
#142=ORIENTED_EDGE('',*,*,#210,.F.);
#143=ORIENTED_EDGE('',*,*,#247,.F.);
#144=ORIENTED_EDGE('',*,*,#248,.T.);
#145=ORIENTED_EDGE('',*,*,#249,.T.);
#146=ORIENTED_EDGE('',*,*,#205,.F.);
#147=ORIENTED_EDGE('',*,*,#250,.F.);
#148=ORIENTED_EDGE('',*,*,#251,.F.);
#149=ORIENTED_EDGE('',*,*,#252,.T.);
#150=ORIENTED_EDGE('',*,*,#250,.T.);
#151=ORIENTED_EDGE('',*,*,#204,.T.);
#152=ORIENTED_EDGE('',*,*,#253,.T.);
#153=ORIENTED_EDGE('',*,*,#254,.F.);
#154=ORIENTED_EDGE('',*,*,#255,.T.);
#155=ORIENTED_EDGE('',*,*,#251,.T.);
#156=ORIENTED_EDGE('',*,*,#207,.T.);
#157=ORIENTED_EDGE('',*,*,#249,.F.);
#158=ORIENTED_EDGE('',*,*,#256,.T.);
#159=ORIENTED_EDGE('',*,*,#254,.T.);
#160=ORIENTED_EDGE('',*,*,#206,.F.);
#161=ORIENTED_EDGE('',*,*,#247,.T.);
#162=ORIENTED_EDGE('',*,*,#253,.F.);
#163=ORIENTED_EDGE('',*,*,#237,.T.);
#164=ORIENTED_EDGE('',*,*,#243,.T.);
#165=ORIENTED_EDGE('',*,*,#257,.F.);
#166=ORIENTED_EDGE('',*,*,#221,.T.);
#167=ORIENTED_EDGE('',*,*,#257,.T.);
#168=ORIENTED_EDGE('',*,*,#258,.F.);
#169=ORIENTED_EDGE('',*,*,#220,.T.);
#170=ORIENTED_EDGE('',*,*,#258,.T.);
#171=ORIENTED_EDGE('',*,*,#259,.F.);
#172=ORIENTED_EDGE('',*,*,#203,.T.);
#173=ORIENTED_EDGE('',*,*,#259,.T.);
#174=ORIENTED_EDGE('',*,*,#260,.F.);
#175=ORIENTED_EDGE('',*,*,#202,.T.);
#176=ORIENTED_EDGE('',*,*,#260,.T.);
#177=ORIENTED_EDGE('',*,*,#201,.F.);
#178=ORIENTED_EDGE('',*,*,#215,.F.);
#179=ORIENTED_EDGE('',*,*,#255,.F.);
#180=ORIENTED_EDGE('',*,*,#256,.F.);
#181=ORIENTED_EDGE('',*,*,#248,.F.);
#182=ORIENTED_EDGE('',*,*,#252,.F.);
#183=ORIENTED_EDGE('',*,*,#246,.F.);
#184=ORIENTED_EDGE('',*,*,#239,.F.);
#185=ORIENTED_EDGE('',*,*,#242,.F.);
#186=ORIENTED_EDGE('',*,*,#244,.F.);
#187=ORIENTED_EDGE('',*,*,#228,.F.);
#188=ORIENTED_EDGE('',*,*,#232,.F.);
#189=ORIENTED_EDGE('',*,*,#229,.F.);
#190=ORIENTED_EDGE('',*,*,#233,.F.);
#191=ORIENTED_EDGE('',*,*,#235,.F.);
#192=ORIENTED_EDGE('',*,*,#236,.F.);
#193=ORIENTED_EDGE('',*,*,#226,.F.);
#194=ORIENTED_EDGE('',*,*,#227,.F.);
#195=ORIENTED_EDGE('',*,*,#223,.F.);
#196=ORIENTED_EDGE('',*,*,#224,.F.);
#197=ORIENTED_EDGE('',*,*,#218,.F.);
#198=ORIENTED_EDGE('',*,*,#219,.F.);
#199=ORIENTED_EDGE('',*,*,#214,.F.);
#200=ORIENTED_EDGE('',*,*,#216,.F.);
#201=EDGE_CURVE('',#261,#261,#310,.F.);
#202=EDGE_CURVE('',#262,#262,#311,.T.);
#203=EDGE_CURVE('',#263,#263,#312,.T.);
#204=EDGE_CURVE('',#264,#265,#35,.T.);
#205=EDGE_CURVE('',#264,#266,#36,.T.);
#206=EDGE_CURVE('',#266,#267,#37,.T.);
#207=EDGE_CURVE('',#265,#267,#38,.T.);
#208=EDGE_CURVE('',#268,#269,#39,.T.);
#209=EDGE_CURVE('',#268,#270,#40,.T.);
#210=EDGE_CURVE('',#270,#271,#41,.T.);
#211=EDGE_CURVE('',#269,#271,#42,.T.);
#212=EDGE_CURVE('',#272,#273,#313,.T.);
#213=EDGE_CURVE('',#272,#273,#43,.T.);
#214=EDGE_CURVE('',#274,#274,#314,.F.);
#215=EDGE_CURVE('',#275,#275,#315,.T.);
#216=EDGE_CURVE('',#276,#276,#316,.T.);
#217=EDGE_CURVE('',#277,#277,#317,.T.);
#218=EDGE_CURVE('',#278,#278,#318,.F.);
#219=EDGE_CURVE('',#279,#279,#319,.T.);
#220=EDGE_CURVE('',#280,#280,#320,.T.);
#221=EDGE_CURVE('',#281,#281,#321,.T.);
#222=EDGE_CURVE('',#282,#282,#322,.T.);
#223=EDGE_CURVE('',#283,#283,#323,.F.);
#224=EDGE_CURVE('',#284,#284,#324,.T.);
#225=EDGE_CURVE('',#285,#285,#325,.T.);
#226=EDGE_CURVE('',#286,#286,#326,.F.);
#227=EDGE_CURVE('',#287,#287,#327,.T.);
#228=EDGE_CURVE('',#288,#289,#19,.T.);
#229=EDGE_CURVE('',#289,#290,#20,.T.);
#230=EDGE_CURVE('',#290,#273,#44,.T.);
#231=EDGE_CURVE('',#288,#272,#45,.T.);
#232=EDGE_CURVE('',#290,#288,#328,.F.);
#233=EDGE_CURVE('',#289,#289,#329,.T.);
#234=EDGE_CURVE('',#291,#291,#330,.T.);
#235=EDGE_CURVE('',#292,#292,#331,.F.);
#236=EDGE_CURVE('',#293,#293,#332,.T.);
#237=EDGE_CURVE('',#294,#294,#333,.T.);
#238=EDGE_CURVE('',#295,#268,#46,.T.);
#239=EDGE_CURVE('',#295,#296,#334,.T.);
#240=EDGE_CURVE('',#296,#270,#47,.T.);
#241=EDGE_CURVE('',#297,#269,#48,.T.);
#242=EDGE_CURVE('',#297,#295,#49,.F.);
#243=EDGE_CURVE('',#298,#298,#335,.T.);
#244=EDGE_CURVE('',#299,#297,#336,.F.);
#245=EDGE_CURVE('',#299,#271,#50,.T.);
#246=EDGE_CURVE('',#296,#299,#51,.T.);
#247=EDGE_CURVE('',#300,#300,#337,.T.);
#248=EDGE_CURVE('',#301,#302,#338,.T.);
#249=EDGE_CURVE('',#302,#266,#52,.T.);
#250=EDGE_CURVE('',#301,#264,#53,.T.);
#251=EDGE_CURVE('',#303,#265,#54,.T.);
#252=EDGE_CURVE('',#303,#301,#55,.F.);
#253=EDGE_CURVE('',#304,#304,#339,.T.);
#254=EDGE_CURVE('',#305,#267,#56,.T.);
#255=EDGE_CURVE('',#305,#303,#340,.F.);
#256=EDGE_CURVE('',#302,#305,#57,.T.);
#257=EDGE_CURVE('',#306,#306,#341,.T.);
#258=EDGE_CURVE('',#307,#307,#342,.T.);
#259=EDGE_CURVE('',#308,#308,#343,.T.);
#260=EDGE_CURVE('',#309,#309,#344,.T.);
#261=VERTEX_POINT('',#1113);
#262=VERTEX_POINT('',#1115);
#263=VERTEX_POINT('',#1117);
#264=VERTEX_POINT('',#1119);
#265=VERTEX_POINT('',#1120);
#266=VERTEX_POINT('',#1122);
#267=VERTEX_POINT('',#1124);
#268=VERTEX_POINT('',#1127);
#269=VERTEX_POINT('',#1128);
#270=VERTEX_POINT('',#1130);
#271=VERTEX_POINT('',#1132);
#272=VERTEX_POINT('',#1135);
#273=VERTEX_POINT('',#1136);
#274=VERTEX_POINT('',#1140);
#275=VERTEX_POINT('',#1142);
#276=VERTEX_POINT('',#1145);
#277=VERTEX_POINT('',#1147);
#278=VERTEX_POINT('',#1150);
#279=VERTEX_POINT('',#1153);
#280=VERTEX_POINT('',#1155);
#281=VERTEX_POINT('',#1157);
#282=VERTEX_POINT('',#1159);
#283=VERTEX_POINT('',#1162);
#284=VERTEX_POINT('',#1165);
#285=VERTEX_POINT('',#1167);
#286=VERTEX_POINT('',#1170);
#287=VERTEX_POINT('',#1173);
#288=VERTEX_POINT('',#1179);
#289=VERTEX_POINT('',#1180);
#290=VERTEX_POINT('',#1185);
#291=VERTEX_POINT('',#1193);
#292=VERTEX_POINT('',#1196);
#293=VERTEX_POINT('',#1199);
#294=VERTEX_POINT('',#1202);
#295=VERTEX_POINT('',#1204);
#296=VERTEX_POINT('',#1206);
#297=VERTEX_POINT('',#1210);
#298=VERTEX_POINT('',#1214);
#299=VERTEX_POINT('',#1216);
#300=VERTEX_POINT('',#1222);
#301=VERTEX_POINT('',#1224);
#302=VERTEX_POINT('',#1225);
#303=VERTEX_POINT('',#1230);
#304=VERTEX_POINT('',#1234);
#305=VERTEX_POINT('',#1236);
#306=VERTEX_POINT('',#1244);
#307=VERTEX_POINT('',#1248);
#308=VERTEX_POINT('',#1252);
#309=VERTEX_POINT('',#1256);
#310=CIRCLE('',#858,0.0114);
#311=CIRCLE('',#859,0.001);
#312=CIRCLE('',#860,0.001);
#313=CIRCLE('',#861,0.00425);
#314=CIRCLE('',#863,0.0119);
#315=CIRCLE('',#864,0.0119);
#316=CIRCLE('',#866,0.0114);
#317=CIRCLE('',#867,0.0095);
#318=CIRCLE('',#869,0.0095);
#319=CIRCLE('',#871,0.009);
#320=CIRCLE('',#872,0.00115);
#321=CIRCLE('',#873,0.00115);
#322=CIRCLE('',#874,0.003075);
#323=CIRCLE('',#876,0.003075);
#324=CIRCLE('',#878,0.002575);
#325=CIRCLE('',#879,0.001);
#326=CIRCLE('',#881,0.001);
#327=CIRCLE('',#883,0.00075);
#328=CIRCLE('',#886,0.00425);
#329=CIRCLE('',#888,0.00375);
#330=CIRCLE('',#889,0.001);
#331=CIRCLE('',#891,0.001);
#332=CIRCLE('',#893,0.00075);
#333=CIRCLE('',#895,0.00075);
#334=CIRCLE('',#896,0.00145);
#335=CIRCLE('',#899,0.00075);
#336=CIRCLE('',#900,0.00145);
#337=CIRCLE('',#903,0.00075);
#338=CIRCLE('',#904,0.00145);
#339=CIRCLE('',#907,0.00075);
#340=CIRCLE('',#908,0.00145);
#341=CIRCLE('',#913,0.00115);
#342=CIRCLE('',#916,0.00115);
#343=CIRCLE('',#919,0.001);
#344=CIRCLE('',#922,0.001);
#345=EDGE_LOOP('',(#81));
#346=EDGE_LOOP('',(#82));
#347=EDGE_LOOP('',(#83));
#348=EDGE_LOOP('',(#84,#85,#86,#87));
#349=EDGE_LOOP('',(#88,#89,#90,#91));
#350=EDGE_LOOP('',(#92,#93));
#351=EDGE_LOOP('',(#94));
#352=EDGE_LOOP('',(#95));
#353=EDGE_LOOP('',(#96));
#354=EDGE_LOOP('',(#97));
#355=EDGE_LOOP('',(#98));
#356=EDGE_LOOP('',(#99));
#357=EDGE_LOOP('',(#100));
#358=EDGE_LOOP('',(#101));
#359=EDGE_LOOP('',(#102));
#360=EDGE_LOOP('',(#103));
#361=EDGE_LOOP('',(#104));
#362=EDGE_LOOP('',(#105));
#363=EDGE_LOOP('',(#106));
#364=EDGE_LOOP('',(#107));
#365=EDGE_LOOP('',(#108));
#366=EDGE_LOOP('',(#109));
#367=EDGE_LOOP('',(#110));
#368=EDGE_LOOP('',(#111,#112,#113,#114,#115));
#369=EDGE_LOOP('',(#116,#117,#118,#119));
#370=EDGE_LOOP('',(#120));
#371=EDGE_LOOP('',(#121));
#372=EDGE_LOOP('',(#122));
#373=EDGE_LOOP('',(#123));
#374=EDGE_LOOP('',(#124));
#375=EDGE_LOOP('',(#125));
#376=EDGE_LOOP('',(#126,#127,#128,#129));
#377=EDGE_LOOP('',(#130,#131,#132,#133));
#378=EDGE_LOOP('',(#134));
#379=EDGE_LOOP('',(#135,#136,#137,#138));
#380=EDGE_LOOP('',(#139,#140,#141,#142));
#381=EDGE_LOOP('',(#143));
#382=EDGE_LOOP('',(#144,#145,#146,#147));
#383=EDGE_LOOP('',(#148,#149,#150,#151));
#384=EDGE_LOOP('',(#152));
#385=EDGE_LOOP('',(#153,#154,#155,#156));
#386=EDGE_LOOP('',(#157,#158,#159,#160));
#387=EDGE_LOOP('',(#161));
#388=EDGE_LOOP('',(#162));
#389=EDGE_LOOP('',(#163));
#390=EDGE_LOOP('',(#164));
#391=EDGE_LOOP('',(#165));
#392=EDGE_LOOP('',(#166));
#393=EDGE_LOOP('',(#167));
#394=EDGE_LOOP('',(#168));
#395=EDGE_LOOP('',(#169));
#396=EDGE_LOOP('',(#170));
#397=EDGE_LOOP('',(#171));
#398=EDGE_LOOP('',(#172));
#399=EDGE_LOOP('',(#173));
#400=EDGE_LOOP('',(#174));
#401=EDGE_LOOP('',(#175));
#402=EDGE_LOOP('',(#176));
#403=EDGE_LOOP('',(#177));
#404=EDGE_LOOP('',(#178));
#405=EDGE_LOOP('',(#179,#180,#181,#182));
#406=EDGE_LOOP('',(#183,#184,#185,#186));
#407=EDGE_LOOP('',(#187,#188,#189,#190));
#408=EDGE_LOOP('',(#191));
#409=EDGE_LOOP('',(#192));
#410=EDGE_LOOP('',(#193));
#411=EDGE_LOOP('',(#194));
#412=EDGE_LOOP('',(#195));
#413=EDGE_LOOP('',(#196));
#414=EDGE_LOOP('',(#197));
#415=EDGE_LOOP('',(#198));
#416=EDGE_LOOP('',(#199));
#417=EDGE_LOOP('',(#200));
#418=FACE_BOUND('',#345,.T.);
#419=FACE_BOUND('',#346,.T.);
#420=FACE_BOUND('',#347,.T.);
#421=FACE_BOUND('',#348,.T.);
#422=FACE_BOUND('',#349,.T.);
#423=FACE_BOUND('',#350,.T.);
#424=FACE_BOUND('',#351,.T.);
#425=FACE_BOUND('',#352,.T.);
#426=FACE_BOUND('',#353,.T.);
#427=FACE_BOUND('',#354,.T.);
#428=FACE_BOUND('',#355,.T.);
#429=FACE_BOUND('',#356,.T.);
#430=FACE_BOUND('',#357,.T.);
#431=FACE_BOUND('',#358,.T.);
#432=FACE_BOUND('',#359,.T.);
#433=FACE_BOUND('',#360,.T.);
#434=FACE_BOUND('',#361,.T.);
#435=FACE_BOUND('',#362,.T.);
#436=FACE_BOUND('',#363,.T.);
#437=FACE_BOUND('',#364,.T.);
#438=FACE_BOUND('',#365,.T.);
#439=FACE_BOUND('',#366,.T.);
#440=FACE_BOUND('',#367,.T.);
#441=FACE_BOUND('',#368,.T.);
#442=FACE_BOUND('',#369,.T.);
#443=FACE_BOUND('',#370,.T.);
#444=FACE_BOUND('',#371,.T.);
#445=FACE_BOUND('',#372,.T.);
#446=FACE_BOUND('',#373,.T.);
#447=FACE_BOUND('',#374,.T.);
#448=FACE_BOUND('',#375,.T.);
#449=FACE_BOUND('',#376,.T.);
#450=FACE_BOUND('',#377,.T.);
#451=FACE_BOUND('',#378,.T.);
#452=FACE_BOUND('',#379,.T.);
#453=FACE_BOUND('',#380,.T.);
#454=FACE_BOUND('',#381,.T.);
#455=FACE_BOUND('',#382,.T.);
#456=FACE_BOUND('',#383,.T.);
#457=FACE_BOUND('',#384,.T.);
#458=FACE_BOUND('',#385,.T.);
#459=FACE_BOUND('',#386,.T.);
#460=FACE_BOUND('',#387,.T.);
#461=FACE_BOUND('',#388,.T.);
#462=FACE_BOUND('',#389,.T.);
#463=FACE_BOUND('',#390,.T.);
#464=FACE_BOUND('',#391,.T.);
#465=FACE_BOUND('',#392,.T.);
#466=FACE_BOUND('',#393,.T.);
#467=FACE_BOUND('',#394,.T.);
#468=FACE_BOUND('',#395,.T.);
#469=FACE_BOUND('',#396,.T.);
#470=FACE_BOUND('',#397,.T.);
#471=FACE_BOUND('',#398,.T.);
#472=FACE_BOUND('',#399,.T.);
#473=FACE_BOUND('',#400,.T.);
#474=FACE_BOUND('',#401,.T.);
#475=FACE_BOUND('',#402,.T.);
#476=FACE_BOUND('',#403,.T.);
#477=FACE_BOUND('',#404,.T.);
#478=FACE_BOUND('',#405,.T.);
#479=FACE_BOUND('',#406,.T.);
#480=FACE_BOUND('',#407,.T.);
#481=FACE_BOUND('',#408,.T.);
#482=FACE_BOUND('',#409,.T.);
#483=FACE_BOUND('',#410,.T.);
#484=FACE_BOUND('',#411,.T.);
#485=FACE_BOUND('',#412,.T.);
#486=FACE_BOUND('',#413,.T.);
#487=FACE_BOUND('',#414,.T.);
#488=FACE_BOUND('',#415,.T.);
#489=FACE_BOUND('',#416,.T.);
#490=FACE_BOUND('',#417,.T.);
#491=PLANE('',#857);
#492=PLANE('',#865);
#493=PLANE('',#870);
#494=PLANE('',#877);
#495=PLANE('',#882);
#496=PLANE('',#884);
#497=PLANE('',#887);
#498=PLANE('',#892);
#499=PLANE('',#894);
#500=PLANE('',#897);
#501=PLANE('',#898);
#502=PLANE('',#901);
#503=PLANE('',#902);
#504=PLANE('',#905);
#505=PLANE('',#906);
#506=PLANE('',#909);
#507=PLANE('',#914);
#508=PLANE('',#917);
#509=PLANE('',#920);
#510=PLANE('',#923);
#511=OVER_RIDING_STYLED_ITEM('',(#596),#552,#594);
#512=OVER_RIDING_STYLED_ITEM('',(#597),#553,#594);
#513=OVER_RIDING_STYLED_ITEM('',(#598),#554,#594);
#514=OVER_RIDING_STYLED_ITEM('',(#599),#555,#594);
#515=OVER_RIDING_STYLED_ITEM('',(#600),#556,#594);
#516=OVER_RIDING_STYLED_ITEM('',(#601),#557,#594);
#517=OVER_RIDING_STYLED_ITEM('',(#602),#558,#594);
#518=OVER_RIDING_STYLED_ITEM('',(#603),#559,#594);
#519=OVER_RIDING_STYLED_ITEM('',(#604),#560,#594);
#520=OVER_RIDING_STYLED_ITEM('',(#605),#561,#594);
#521=OVER_RIDING_STYLED_ITEM('',(#606),#562,#594);
#522=OVER_RIDING_STYLED_ITEM('',(#607),#563,#594);
#523=OVER_RIDING_STYLED_ITEM('',(#608),#564,#594);
#524=OVER_RIDING_STYLED_ITEM('',(#609),#565,#594);
#525=OVER_RIDING_STYLED_ITEM('',(#610),#566,#594);
#526=OVER_RIDING_STYLED_ITEM('',(#611),#567,#594);
#527=OVER_RIDING_STYLED_ITEM('',(#612),#568,#594);
#528=OVER_RIDING_STYLED_ITEM('',(#613),#569,#594);
#529=OVER_RIDING_STYLED_ITEM('',(#614),#570,#594);
#530=OVER_RIDING_STYLED_ITEM('',(#615),#571,#594);
#531=OVER_RIDING_STYLED_ITEM('',(#616),#572,#594);
#532=OVER_RIDING_STYLED_ITEM('',(#617),#573,#594);
#533=OVER_RIDING_STYLED_ITEM('',(#618),#574,#594);
#534=OVER_RIDING_STYLED_ITEM('',(#619),#575,#594);
#535=OVER_RIDING_STYLED_ITEM('',(#620),#576,#594);
#536=OVER_RIDING_STYLED_ITEM('',(#621),#577,#594);
#537=OVER_RIDING_STYLED_ITEM('',(#622),#578,#594);
#538=OVER_RIDING_STYLED_ITEM('',(#623),#579,#594);
#539=OVER_RIDING_STYLED_ITEM('',(#624),#580,#594);
#540=OVER_RIDING_STYLED_ITEM('',(#625),#581,#594);
#541=OVER_RIDING_STYLED_ITEM('',(#626),#582,#594);
#542=OVER_RIDING_STYLED_ITEM('',(#627),#583,#594);
#543=OVER_RIDING_STYLED_ITEM('',(#628),#584,#594);
#544=OVER_RIDING_STYLED_ITEM('',(#629),#585,#594);
#545=OVER_RIDING_STYLED_ITEM('',(#630),#586,#594);
#546=OVER_RIDING_STYLED_ITEM('',(#631),#587,#594);
#547=OVER_RIDING_STYLED_ITEM('',(#632),#588,#594);
#548=OVER_RIDING_STYLED_ITEM('',(#633),#589,#594);
#549=OVER_RIDING_STYLED_ITEM('',(#634),#590,#594);
#550=OVER_RIDING_STYLED_ITEM('',(#635),#591,#594);
#551=OVER_RIDING_STYLED_ITEM('',(#636),#592,#594);
#552=ADVANCED_FACE('Face appearance 9',(#418,#419,#420,#421,#422,#423),
#491,.F.);
#553=ADVANCED_FACE('Face appearance 6',(#424,#425),#21,.T.);
#554=ADVANCED_FACE('Face appearance 6',(#426,#427),#492,.T.);
#555=ADVANCED_FACE('Face appearance 6',(#428,#429),#22,.T.);
#556=ADVANCED_FACE('Face appearance 6',(#430,#431,#432,#433),#493,.T.);
#557=ADVANCED_FACE('Face appearance 6',(#434,#435),#23,.T.);
#558=ADVANCED_FACE('Face appearance 8',(#436,#437),#494,.T.);
#559=ADVANCED_FACE('Face appearance 7',(#438,#439),#24,.T.);
#560=ADVANCED_FACE('Face appearance 7',(#440),#495,.T.);
#561=ADVANCED_FACE('Face appearance 9',(#441),#496,.T.);
#562=ADVANCED_FACE('Face appearance 9',(#442),#25,.T.);
#563=ADVANCED_FACE('Face appearance 8',(#443,#444),#497,.T.);
#564=ADVANCED_FACE('Face appearance 7',(#445,#446),#26,.T.);
#565=ADVANCED_FACE('Face appearance 7',(#447),#498,.T.);
#566=ADVANCED_FACE('Face appearance 5',(#448,#449),#499,.T.);
#567=ADVANCED_FACE('Face appearance 5',(#450),#500,.F.);
#568=ADVANCED_FACE('Face appearance 3',(#451,#452),#501,.F.);
#569=ADVANCED_FACE('Face appearance 4',(#453),#502,.T.);
#570=ADVANCED_FACE('Face appearance 5',(#454,#455),#503,.T.);
#571=ADVANCED_FACE('Face appearance 5',(#456),#504,.F.);
#572=ADVANCED_FACE('Face appearance 5',(#457,#458),#505,.F.);
#573=ADVANCED_FACE('Face appearance 5',(#459),#506,.T.);
#574=ADVANCED_FACE('Face appearance 5',(#460,#461),#27,.F.);
#575=ADVANCED_FACE('Face appearance 5',(#462,#463),#28,.F.);
#576=ADVANCED_FACE('Face appearance 6',(#464,#465),#29,.F.);
#577=ADVANCED_FACE('Face appearance 6',(#466),#507,.T.);
#578=ADVANCED_FACE('Face appearance 6',(#467,#468),#30,.F.);
#579=ADVANCED_FACE('Face appearance 6',(#469),#508,.T.);
#580=ADVANCED_FACE('Face appearance 6',(#470,#471),#31,.F.);
#581=ADVANCED_FACE('Face appearance 6',(#472),#509,.T.);
#582=ADVANCED_FACE('Face appearance 6',(#473,#474),#32,.F.);
#583=ADVANCED_FACE('Face appearance 6',(#475),#510,.T.);
#584=ADVANCED_FACE('Face appearance 6',(#476,#477),#14,.T.);
#585=ADVANCED_FACE('Face appearance 5',(#478),#33,.T.);
#586=ADVANCED_FACE('Face appearance 5',(#479),#34,.T.);
#587=ADVANCED_FACE('Face appearance 9',(#480),#15,.T.);
#588=ADVANCED_FACE('Face appearance 7',(#481,#482),#16,.T.);
#589=ADVANCED_FACE('Face appearance 7',(#483,#484),#17,.T.);
#590=ADVANCED_FACE('Face appearance 6',(#485,#486),#18,.T.);
#591=ADVANCED_FACE('Face appearance 6',(#487,#488),#12,.T.);
#592=ADVANCED_FACE('Face appearance 6',(#489,#490),#13,.T.);
#593=CLOSED_SHELL('',(#552,#553,#554,#555,#556,#557,#558,#559,#560,#561,
#562,#563,#564,#565,#566,#567,#568,#569,#570,#571,#572,#573,#574,#575,#576,
#577,#578,#579,#580,#581,#582,#583,#584,#585,#586,#587,#588,#589,#590,#591,
#592));
#594=STYLED_ITEM('',(#595),#853);
#595=PRESENTATION_STYLE_ASSIGNMENT((#637));
#596=PRESENTATION_STYLE_ASSIGNMENT((#638));
#597=PRESENTATION_STYLE_ASSIGNMENT((#639));
#598=PRESENTATION_STYLE_ASSIGNMENT((#640));
#599=PRESENTATION_STYLE_ASSIGNMENT((#641));
#600=PRESENTATION_STYLE_ASSIGNMENT((#642));
#601=PRESENTATION_STYLE_ASSIGNMENT((#643));
#602=PRESENTATION_STYLE_ASSIGNMENT((#644));
#603=PRESENTATION_STYLE_ASSIGNMENT((#645));
#604=PRESENTATION_STYLE_ASSIGNMENT((#646));
#605=PRESENTATION_STYLE_ASSIGNMENT((#647));
#606=PRESENTATION_STYLE_ASSIGNMENT((#648));
#607=PRESENTATION_STYLE_ASSIGNMENT((#649));
#608=PRESENTATION_STYLE_ASSIGNMENT((#650));
#609=PRESENTATION_STYLE_ASSIGNMENT((#651));
#610=PRESENTATION_STYLE_ASSIGNMENT((#652));
#611=PRESENTATION_STYLE_ASSIGNMENT((#653));
#612=PRESENTATION_STYLE_ASSIGNMENT((#654));
#613=PRESENTATION_STYLE_ASSIGNMENT((#655));
#614=PRESENTATION_STYLE_ASSIGNMENT((#656));
#615=PRESENTATION_STYLE_ASSIGNMENT((#657));
#616=PRESENTATION_STYLE_ASSIGNMENT((#658));
#617=PRESENTATION_STYLE_ASSIGNMENT((#659));
#618=PRESENTATION_STYLE_ASSIGNMENT((#660));
#619=PRESENTATION_STYLE_ASSIGNMENT((#661));
#620=PRESENTATION_STYLE_ASSIGNMENT((#662));
#621=PRESENTATION_STYLE_ASSIGNMENT((#663));
#622=PRESENTATION_STYLE_ASSIGNMENT((#664));
#623=PRESENTATION_STYLE_ASSIGNMENT((#665));
#624=PRESENTATION_STYLE_ASSIGNMENT((#666));
#625=PRESENTATION_STYLE_ASSIGNMENT((#667));
#626=PRESENTATION_STYLE_ASSIGNMENT((#668));
#627=PRESENTATION_STYLE_ASSIGNMENT((#669));
#628=PRESENTATION_STYLE_ASSIGNMENT((#670));
#629=PRESENTATION_STYLE_ASSIGNMENT((#671));
#630=PRESENTATION_STYLE_ASSIGNMENT((#672));
#631=PRESENTATION_STYLE_ASSIGNMENT((#673));
#632=PRESENTATION_STYLE_ASSIGNMENT((#674));
#633=PRESENTATION_STYLE_ASSIGNMENT((#675));
#634=PRESENTATION_STYLE_ASSIGNMENT((#676));
#635=PRESENTATION_STYLE_ASSIGNMENT((#677));
#636=PRESENTATION_STYLE_ASSIGNMENT((#678));
#637=SURFACE_STYLE_USAGE(.BOTH.,#679);
#638=SURFACE_STYLE_USAGE(.BOTH.,#680);
#639=SURFACE_STYLE_USAGE(.BOTH.,#681);
#640=SURFACE_STYLE_USAGE(.BOTH.,#682);
#641=SURFACE_STYLE_USAGE(.BOTH.,#683);
#642=SURFACE_STYLE_USAGE(.BOTH.,#684);
#643=SURFACE_STYLE_USAGE(.BOTH.,#685);
#644=SURFACE_STYLE_USAGE(.BOTH.,#686);
#645=SURFACE_STYLE_USAGE(.BOTH.,#687);
#646=SURFACE_STYLE_USAGE(.BOTH.,#688);
#647=SURFACE_STYLE_USAGE(.BOTH.,#689);
#648=SURFACE_STYLE_USAGE(.BOTH.,#690);
#649=SURFACE_STYLE_USAGE(.BOTH.,#691);
#650=SURFACE_STYLE_USAGE(.BOTH.,#692);
#651=SURFACE_STYLE_USAGE(.BOTH.,#693);
#652=SURFACE_STYLE_USAGE(.BOTH.,#694);
#653=SURFACE_STYLE_USAGE(.BOTH.,#695);
#654=SURFACE_STYLE_USAGE(.BOTH.,#696);
#655=SURFACE_STYLE_USAGE(.BOTH.,#697);
#656=SURFACE_STYLE_USAGE(.BOTH.,#698);
#657=SURFACE_STYLE_USAGE(.BOTH.,#699);
#658=SURFACE_STYLE_USAGE(.BOTH.,#700);
#659=SURFACE_STYLE_USAGE(.BOTH.,#701);
#660=SURFACE_STYLE_USAGE(.BOTH.,#702);
#661=SURFACE_STYLE_USAGE(.BOTH.,#703);
#662=SURFACE_STYLE_USAGE(.BOTH.,#704);
#663=SURFACE_STYLE_USAGE(.BOTH.,#705);
#664=SURFACE_STYLE_USAGE(.BOTH.,#706);
#665=SURFACE_STYLE_USAGE(.BOTH.,#707);
#666=SURFACE_STYLE_USAGE(.BOTH.,#708);
#667=SURFACE_STYLE_USAGE(.BOTH.,#709);
#668=SURFACE_STYLE_USAGE(.BOTH.,#710);
#669=SURFACE_STYLE_USAGE(.BOTH.,#711);
#670=SURFACE_STYLE_USAGE(.BOTH.,#712);
#671=SURFACE_STYLE_USAGE(.BOTH.,#713);
#672=SURFACE_STYLE_USAGE(.BOTH.,#714);
#673=SURFACE_STYLE_USAGE(.BOTH.,#715);
#674=SURFACE_STYLE_USAGE(.BOTH.,#716);
#675=SURFACE_STYLE_USAGE(.BOTH.,#717);
#676=SURFACE_STYLE_USAGE(.BOTH.,#718);
#677=SURFACE_STYLE_USAGE(.BOTH.,#719);
#678=SURFACE_STYLE_USAGE(.BOTH.,#720);
#679=SURFACE_SIDE_STYLE('',(#721));
#680=SURFACE_SIDE_STYLE('',(#722));
#681=SURFACE_SIDE_STYLE('',(#723));
#682=SURFACE_SIDE_STYLE('',(#724));
#683=SURFACE_SIDE_STYLE('',(#725));
#684=SURFACE_SIDE_STYLE('',(#726));
#685=SURFACE_SIDE_STYLE('',(#727));
#686=SURFACE_SIDE_STYLE('',(#728));
#687=SURFACE_SIDE_STYLE('',(#729));
#688=SURFACE_SIDE_STYLE('',(#730));
#689=SURFACE_SIDE_STYLE('',(#731));
#690=SURFACE_SIDE_STYLE('',(#732));
#691=SURFACE_SIDE_STYLE('',(#733));
#692=SURFACE_SIDE_STYLE('',(#734));
#693=SURFACE_SIDE_STYLE('',(#735));
#694=SURFACE_SIDE_STYLE('',(#736));
#695=SURFACE_SIDE_STYLE('',(#737));
#696=SURFACE_SIDE_STYLE('',(#738));
#697=SURFACE_SIDE_STYLE('',(#739));
#698=SURFACE_SIDE_STYLE('',(#740));
#699=SURFACE_SIDE_STYLE('',(#741));
#700=SURFACE_SIDE_STYLE('',(#742));
#701=SURFACE_SIDE_STYLE('',(#743));
#702=SURFACE_SIDE_STYLE('',(#744));
#703=SURFACE_SIDE_STYLE('',(#745));
#704=SURFACE_SIDE_STYLE('',(#746));
#705=SURFACE_SIDE_STYLE('',(#747));
#706=SURFACE_SIDE_STYLE('',(#748));
#707=SURFACE_SIDE_STYLE('',(#749));
#708=SURFACE_SIDE_STYLE('',(#750));
#709=SURFACE_SIDE_STYLE('',(#751));
#710=SURFACE_SIDE_STYLE('',(#752));
#711=SURFACE_SIDE_STYLE('',(#753));
#712=SURFACE_SIDE_STYLE('',(#754));
#713=SURFACE_SIDE_STYLE('',(#755));
#714=SURFACE_SIDE_STYLE('',(#756));
#715=SURFACE_SIDE_STYLE('',(#757));
#716=SURFACE_SIDE_STYLE('',(#758));
#717=SURFACE_SIDE_STYLE('',(#759));
#718=SURFACE_SIDE_STYLE('',(#760));
#719=SURFACE_SIDE_STYLE('',(#761));
#720=SURFACE_SIDE_STYLE('',(#762));
#721=SURFACE_STYLE_FILL_AREA(#763);
#722=SURFACE_STYLE_FILL_AREA(#764);
#723=SURFACE_STYLE_FILL_AREA(#765);
#724=SURFACE_STYLE_FILL_AREA(#766);
#725=SURFACE_STYLE_FILL_AREA(#767);
#726=SURFACE_STYLE_FILL_AREA(#768);
#727=SURFACE_STYLE_FILL_AREA(#769);
#728=SURFACE_STYLE_FILL_AREA(#770);
#729=SURFACE_STYLE_FILL_AREA(#771);
#730=SURFACE_STYLE_FILL_AREA(#772);
#731=SURFACE_STYLE_FILL_AREA(#773);
#732=SURFACE_STYLE_FILL_AREA(#774);
#733=SURFACE_STYLE_FILL_AREA(#775);
#734=SURFACE_STYLE_FILL_AREA(#776);
#735=SURFACE_STYLE_FILL_AREA(#777);
#736=SURFACE_STYLE_FILL_AREA(#778);
#737=SURFACE_STYLE_FILL_AREA(#779);
#738=SURFACE_STYLE_FILL_AREA(#780);
#739=SURFACE_STYLE_FILL_AREA(#781);
#740=SURFACE_STYLE_FILL_AREA(#782);
#741=SURFACE_STYLE_FILL_AREA(#783);
#742=SURFACE_STYLE_FILL_AREA(#784);
#743=SURFACE_STYLE_FILL_AREA(#785);
#744=SURFACE_STYLE_FILL_AREA(#786);
#745=SURFACE_STYLE_FILL_AREA(#787);
#746=SURFACE_STYLE_FILL_AREA(#788);
#747=SURFACE_STYLE_FILL_AREA(#789);
#748=SURFACE_STYLE_FILL_AREA(#790);
#749=SURFACE_STYLE_FILL_AREA(#791);
#750=SURFACE_STYLE_FILL_AREA(#792);
#751=SURFACE_STYLE_FILL_AREA(#793);
#752=SURFACE_STYLE_FILL_AREA(#794);
#753=SURFACE_STYLE_FILL_AREA(#795);
#754=SURFACE_STYLE_FILL_AREA(#796);
#755=SURFACE_STYLE_FILL_AREA(#797);
#756=SURFACE_STYLE_FILL_AREA(#798);
#757=SURFACE_STYLE_FILL_AREA(#799);
#758=SURFACE_STYLE_FILL_AREA(#800);
#759=SURFACE_STYLE_FILL_AREA(#801);
#760=SURFACE_STYLE_FILL_AREA(#802);
#761=SURFACE_STYLE_FILL_AREA(#803);
#762=SURFACE_STYLE_FILL_AREA(#804);
#763=FILL_AREA_STYLE('',(#805));
#764=FILL_AREA_STYLE('',(#806));
#765=FILL_AREA_STYLE('',(#807));
#766=FILL_AREA_STYLE('',(#808));
#767=FILL_AREA_STYLE('',(#809));
#768=FILL_AREA_STYLE('',(#810));
#769=FILL_AREA_STYLE('',(#811));
#770=FILL_AREA_STYLE('',(#812));
#771=FILL_AREA_STYLE('',(#813));
#772=FILL_AREA_STYLE('',(#814));
#773=FILL_AREA_STYLE('',(#815));
#774=FILL_AREA_STYLE('',(#816));
#775=FILL_AREA_STYLE('',(#817));
#776=FILL_AREA_STYLE('',(#818));
#777=FILL_AREA_STYLE('',(#819));
#778=FILL_AREA_STYLE('',(#820));
#779=FILL_AREA_STYLE('',(#821));
#780=FILL_AREA_STYLE('',(#822));
#781=FILL_AREA_STYLE('',(#823));
#782=FILL_AREA_STYLE('',(#824));
#783=FILL_AREA_STYLE('',(#825));
#784=FILL_AREA_STYLE('',(#826));
#785=FILL_AREA_STYLE('',(#827));
#786=FILL_AREA_STYLE('',(#828));
#787=FILL_AREA_STYLE('',(#829));
#788=FILL_AREA_STYLE('',(#830));
#789=FILL_AREA_STYLE('',(#831));
#790=FILL_AREA_STYLE('',(#832));
#791=FILL_AREA_STYLE('',(#833));
#792=FILL_AREA_STYLE('',(#834));
#793=FILL_AREA_STYLE('',(#835));
#794=FILL_AREA_STYLE('',(#836));
#795=FILL_AREA_STYLE('',(#837));
#796=FILL_AREA_STYLE('',(#838));
#797=FILL_AREA_STYLE('',(#839));
#798=FILL_AREA_STYLE('',(#840));
#799=FILL_AREA_STYLE('',(#841));
#800=FILL_AREA_STYLE('',(#842));
#801=FILL_AREA_STYLE('',(#843));
#802=FILL_AREA_STYLE('',(#844));
#803=FILL_AREA_STYLE('',(#845));
#804=FILL_AREA_STYLE('',(#846));
#805=FILL_AREA_STYLE_COLOUR('',#847);
#806=FILL_AREA_STYLE_COLOUR('',#848);
#807=FILL_AREA_STYLE_COLOUR('',#849);
#808=FILL_AREA_STYLE_COLOUR('',#849);
#809=FILL_AREA_STYLE_COLOUR('',#849);
#810=FILL_AREA_STYLE_COLOUR('',#849);
#811=FILL_AREA_STYLE_COLOUR('',#849);
#812=FILL_AREA_STYLE_COLOUR('',#850);
#813=FILL_AREA_STYLE_COLOUR('',#851);
#814=FILL_AREA_STYLE_COLOUR('',#851);
#815=FILL_AREA_STYLE_COLOUR('',#848);
#816=FILL_AREA_STYLE_COLOUR('',#848);
#817=FILL_AREA_STYLE_COLOUR('',#850);
#818=FILL_AREA_STYLE_COLOUR('',#851);
#819=FILL_AREA_STYLE_COLOUR('',#851);
#820=FILL_AREA_STYLE_COLOUR('',#852);
#821=FILL_AREA_STYLE_COLOUR('',#852);
#822=FILL_AREA_STYLE_COLOUR('',#852);
#823=FILL_AREA_STYLE_COLOUR('',#852);
#824=FILL_AREA_STYLE_COLOUR('',#852);
#825=FILL_AREA_STYLE_COLOUR('',#852);
#826=FILL_AREA_STYLE_COLOUR('',#852);
#827=FILL_AREA_STYLE_COLOUR('',#852);
#828=FILL_AREA_STYLE_COLOUR('',#852);
#829=FILL_AREA_STYLE_COLOUR('',#852);
#830=FILL_AREA_STYLE_COLOUR('',#849);
#831=FILL_AREA_STYLE_COLOUR('',#849);
#832=FILL_AREA_STYLE_COLOUR('',#849);
#833=FILL_AREA_STYLE_COLOUR('',#849);
#834=FILL_AREA_STYLE_COLOUR('',#849);
#835=FILL_AREA_STYLE_COLOUR('',#849);
#836=FILL_AREA_STYLE_COLOUR('',#849);
#837=FILL_AREA_STYLE_COLOUR('',#849);
#838=FILL_AREA_STYLE_COLOUR('',#849);
#839=FILL_AREA_STYLE_COLOUR('',#852);
#840=FILL_AREA_STYLE_COLOUR('',#852);
#841=FILL_AREA_STYLE_COLOUR('',#848);
#842=FILL_AREA_STYLE_COLOUR('',#851);
#843=FILL_AREA_STYLE_COLOUR('',#851);
#844=FILL_AREA_STYLE_COLOUR('',#849);
#845=FILL_AREA_STYLE_COLOUR('',#849);
#846=FILL_AREA_STYLE_COLOUR('',#849);
#847=COLOUR_RGB('',0.615686274509804,0.811764705882353,0.929411764705882);
#848=COLOUR_RGB('',0.996078431372549,1.,0.992156862745098);
#849=COLOUR_RGB('',0.529411764705882,0.568627450980392,0.6);
#850=COLOUR_RGB('',0.650980392156863,0.486274509803922,0.0196078431372549);
#851=COLOUR_RGB('',0.811764705882353,0.858823529411765,0.898039215686275);
#852=COLOUR_RGB('',0.72156862745098,0.450980392156863,0.2);
#853=MANIFOLD_SOLID_BREP('Part 1',#593);
#854=SHAPE_DEFINITION_REPRESENTATION(#1273,#855);
#855=SHAPE_REPRESENTATION('Part 1',(#856),#1268);
#856=AXIS2_PLACEMENT_3D('',#1110,#933,#934);
#857=AXIS2_PLACEMENT_3D('',#1111,#935,#936);
#858=AXIS2_PLACEMENT_3D('',#1112,#937,#938);
#859=AXIS2_PLACEMENT_3D('',#1114,#939,#940);
#860=AXIS2_PLACEMENT_3D('',#1116,#941,#942);
#861=AXIS2_PLACEMENT_3D('',#1134,#951,#952);
#862=AXIS2_PLACEMENT_3D('',#1138,#954,#955);
#863=AXIS2_PLACEMENT_3D('',#1139,#956,#957);
#864=AXIS2_PLACEMENT_3D('',#1141,#958,#959);
#865=AXIS2_PLACEMENT_3D('',#1143,#960,#961);
#866=AXIS2_PLACEMENT_3D('',#1144,#962,#963);
#867=AXIS2_PLACEMENT_3D('',#1146,#964,#965);
#868=AXIS2_PLACEMENT_3D('',#1148,#966,#967);
#869=AXIS2_PLACEMENT_3D('',#1149,#968,#969);
#870=AXIS2_PLACEMENT_3D('',#1151,#970,#971);
#871=AXIS2_PLACEMENT_3D('',#1152,#972,#973);
#872=AXIS2_PLACEMENT_3D('',#1154,#974,#975);
#873=AXIS2_PLACEMENT_3D('',#1156,#976,#977);
#874=AXIS2_PLACEMENT_3D('',#1158,#978,#979);
#875=AXIS2_PLACEMENT_3D('',#1160,#980,#981);
#876=AXIS2_PLACEMENT_3D('',#1161,#982,#983);
#877=AXIS2_PLACEMENT_3D('',#1163,#984,#985);
#878=AXIS2_PLACEMENT_3D('',#1164,#986,#987);
#879=AXIS2_PLACEMENT_3D('',#1166,#988,#989);
#880=AXIS2_PLACEMENT_3D('',#1168,#990,#991);
#881=AXIS2_PLACEMENT_3D('',#1169,#992,#993);
#882=AXIS2_PLACEMENT_3D('',#1171,#994,#995);
#883=AXIS2_PLACEMENT_3D('',#1172,#996,#997);
#884=AXIS2_PLACEMENT_3D('',#1174,#998,#999);
#885=AXIS2_PLACEMENT_3D('',#1188,#1002,#1003);
#886=AXIS2_PLACEMENT_3D('',#1189,#1004,#1005);
#887=AXIS2_PLACEMENT_3D('',#1190,#1006,#1007);
#888=AXIS2_PLACEMENT_3D('',#1191,#1008,#1009);
#889=AXIS2_PLACEMENT_3D('',#1192,#1010,#1011);
#890=AXIS2_PLACEMENT_3D('',#1194,#1012,#1013);
#891=AXIS2_PLACEMENT_3D('',#1195,#1014,#1015);
#892=AXIS2_PLACEMENT_3D('',#1197,#1016,#1017);
#893=AXIS2_PLACEMENT_3D('',#1198,#1018,#1019);
#894=AXIS2_PLACEMENT_3D('',#1200,#1020,#1021);
#895=AXIS2_PLACEMENT_3D('',#1201,#1022,#1023);
#896=AXIS2_PLACEMENT_3D('',#1205,#1025,#1026);
#897=AXIS2_PLACEMENT_3D('',#1208,#1028,#1029);
#898=AXIS2_PLACEMENT_3D('',#1212,#1032,#1033);
#899=AXIS2_PLACEMENT_3D('',#1213,#1034,#1035);
#900=AXIS2_PLACEMENT_3D('',#1215,#1036,#1037);
#901=AXIS2_PLACEMENT_3D('',#1218,#1039,#1040);
#902=AXIS2_PLACEMENT_3D('',#1220,#1042,#1043);
#903=AXIS2_PLACEMENT_3D('',#1221,#1044,#1045);
#904=AXIS2_PLACEMENT_3D('',#1223,#1046,#1047);
#905=AXIS2_PLACEMENT_3D('',#1228,#1050,#1051);
#906=AXIS2_PLACEMENT_3D('',#1232,#1054,#1055);
#907=AXIS2_PLACEMENT_3D('',#1233,#1056,#1057);
#908=AXIS2_PLACEMENT_3D('',#1237,#1059,#1060);
#909=AXIS2_PLACEMENT_3D('',#1238,#1061,#1062);
#910=AXIS2_PLACEMENT_3D('',#1240,#1064,#1065);
#911=AXIS2_PLACEMENT_3D('',#1241,#1066,#1067);
#912=AXIS2_PLACEMENT_3D('',#1242,#1068,#1069);
#913=AXIS2_PLACEMENT_3D('',#1243,#1070,#1071);
#914=AXIS2_PLACEMENT_3D('',#1245,#1072,#1073);
#915=AXIS2_PLACEMENT_3D('',#1246,#1074,#1075);
#916=AXIS2_PLACEMENT_3D('',#1247,#1076,#1077);
#917=AXIS2_PLACEMENT_3D('',#1249,#1078,#1079);
#918=AXIS2_PLACEMENT_3D('',#1250,#1080,#1081);
#919=AXIS2_PLACEMENT_3D('',#1251,#1082,#1083);
#920=AXIS2_PLACEMENT_3D('',#1253,#1084,#1085);
#921=AXIS2_PLACEMENT_3D('',#1254,#1086,#1087);
#922=AXIS2_PLACEMENT_3D('',#1255,#1088,#1089);
#923=AXIS2_PLACEMENT_3D('',#1257,#1090,#1091);
#924=AXIS2_PLACEMENT_3D('',#1258,#1092,#1093);
#925=AXIS2_PLACEMENT_3D('',#1259,#1094,#1095);
#926=AXIS2_PLACEMENT_3D('',#1260,#1096,#1097);
#927=AXIS2_PLACEMENT_3D('',#1261,#1098,#1099);
#928=AXIS2_PLACEMENT_3D('',#1262,#1100,#1101);
#929=AXIS2_PLACEMENT_3D('',#1263,#1102,#1103);
#930=AXIS2_PLACEMENT_3D('',#1264,#1104,#1105);
#931=AXIS2_PLACEMENT_3D('',#1265,#1106,#1107);
#932=AXIS2_PLACEMENT_3D('',#1266,#1108,#1109);
#933=DIRECTION('',(0.,0.,1.));
#934=DIRECTION('',(1.,0.,0.));
#935=DIRECTION('',(0.,1.,0.));
#936=DIRECTION('',(1.,0.,0.));
#937=DIRECTION('',(0.,1.,0.));
#938=DIRECTION('',(1.,0.,0.));
#939=DIRECTION('',(0.,-1.,0.));
#940=DIRECTION('',(-1.,0.,0.));
#941=DIRECTION('',(0.,-1.,0.));
#942=DIRECTION('',(-1.,0.,0.));
#943=DIRECTION('',(0.,0.,-1.));
#944=DIRECTION('',(1.,0.,0.));
#945=DIRECTION('',(0.,0.,-1.));
#946=DIRECTION('',(1.,0.,0.));
#947=DIRECTION('',(0.,0.,-1.));
#948=DIRECTION('',(1.,0.,0.));
#949=DIRECTION('',(7.2280144832367E-16,0.,-1.));
#950=DIRECTION('',(1.,0.,0.));
#951=DIRECTION('',(0.,-1.,0.));
#952=DIRECTION('',(-1.,0.,0.));
#953=DIRECTION('',(2.16840434497101E-16,0.,-1.));
#954=DIRECTION('',(0.,-1.,0.));
#955=DIRECTION('',(-1.,0.,0.));
#956=DIRECTION('',(0.,1.,0.));
#957=DIRECTION('',(1.,0.,0.));
#958=DIRECTION('',(0.,1.,0.));
#959=DIRECTION('',(1.,0.,0.));
#960=DIRECTION('',(0.,1.,0.));
#961=DIRECTION('',(1.,0.,0.));
#962=DIRECTION('',(0.,1.,0.));
#963=DIRECTION('',(1.,0.,0.));
#964=DIRECTION('',(0.,1.,0.));
#965=DIRECTION('',(1.,0.,0.));
#966=DIRECTION('',(0.,-1.,0.));
#967=DIRECTION('',(-1.,0.,0.));
#968=DIRECTION('',(0.,1.,0.));
#969=DIRECTION('',(1.,0.,0.));
#970=DIRECTION('',(0.,1.,0.));
#971=DIRECTION('',(1.,0.,0.));
#972=DIRECTION('',(0.,1.,0.));
#973=DIRECTION('',(1.,0.,0.));
#974=DIRECTION('',(0.,1.,0.));
#975=DIRECTION('',(1.,0.,0.));
#976=DIRECTION('',(0.,1.,0.));
#977=DIRECTION('',(1.,0.,0.));
#978=DIRECTION('',(0.,1.,0.));
#979=DIRECTION('',(1.,0.,0.));
#980=DIRECTION('',(0.,-1.,0.));
#981=DIRECTION('',(-1.,0.,0.));
#982=DIRECTION('',(0.,1.,0.));
#983=DIRECTION('',(1.,0.,0.));
#984=DIRECTION('',(0.,1.,0.));
#985=DIRECTION('',(1.,0.,0.));
#986=DIRECTION('',(0.,1.,0.));
#987=DIRECTION('',(1.,0.,0.));
#988=DIRECTION('',(0.,1.,0.));
#989=DIRECTION('',(1.,0.,0.));
#990=DIRECTION('',(0.,-1.,0.));
#991=DIRECTION('',(-1.,0.,0.));
#992=DIRECTION('',(0.,1.,0.));
#993=DIRECTION('',(1.,0.,0.));
#994=DIRECTION('',(0.,1.,0.));
#995=DIRECTION('',(1.,0.,0.));
#996=DIRECTION('',(0.,1.,0.));
#997=DIRECTION('',(1.,0.,0.));
#998=DIRECTION('',(1.,0.,2.16840434497101E-16));
#999=DIRECTION('',(2.16840434497101E-16,0.,-1.));
#1000=DIRECTION('',(0.,1.,0.));
#1001=DIRECTION('',(0.,1.,0.));
#1002=DIRECTION('',(0.,1.,0.));
#1003=DIRECTION('',(1.,0.,0.));
#1004=DIRECTION('',(0.,-1.,0.));
#1005=DIRECTION('',(-1.,0.,0.));
#1006=DIRECTION('',(0.,-1.,0.));
#1007=DIRECTION('',(1.,0.,0.));
#1008=DIRECTION('',(0.,-1.,0.));
#1009=DIRECTION('',(-1.,0.,0.));
#1010=DIRECTION('',(0.,-1.,0.));
#1011=DIRECTION('',(-1.,0.,0.));
#1012=DIRECTION('',(0.,1.,0.));
#1013=DIRECTION('',(1.,0.,0.));
#1014=DIRECTION('',(0.,-1.,0.));
#1015=DIRECTION('',(-1.,0.,0.));
#1016=DIRECTION('',(0.,-1.,0.));
#1017=DIRECTION('',(1.,0.,0.));
#1018=DIRECTION('',(0.,-1.,0.));
#1019=DIRECTION('',(-1.,0.,0.));
#1020=DIRECTION('',(0.,0.,1.));
#1021=DIRECTION('',(0.,-1.,0.));
#1022=DIRECTION('',(0.,0.,1.));
#1023=DIRECTION('',(0.,-1.,0.));
#1024=DIRECTION('',(0.,1.,0.));
#1025=DIRECTION('',(0.,0.,1.));
#1026=DIRECTION('',(0.,-1.,0.));
#1027=DIRECTION('',(0.,1.,0.));
#1028=DIRECTION('',(1.,0.,0.));
#1029=DIRECTION('',(0.,-1.,0.));
#1030=DIRECTION('',(0.,1.,0.));
#1031=DIRECTION('',(0.,0.,-1.));
#1032=DIRECTION('',(0.,0.,1.));
#1033=DIRECTION('',(0.,-1.,0.));
#1034=DIRECTION('',(0.,0.,-1.));
#1035=DIRECTION('',(0.,1.,0.));
#1036=DIRECTION('',(0.,0.,1.));
#1037=DIRECTION('',(0.,-1.,0.));
#1038=DIRECTION('',(0.,1.,0.));
#1039=DIRECTION('',(1.,0.,7.2280144832367E-16));
#1040=DIRECTION('',(7.2280144832367E-16,0.,-1.));
#1041=DIRECTION('',(7.2280144832367E-16,0.,-1.));
#1042=DIRECTION('',(0.,0.,1.));
#1043=DIRECTION('',(0.,-1.,0.));
#1044=DIRECTION('',(0.,0.,1.));
#1045=DIRECTION('',(0.,-1.,0.));
#1046=DIRECTION('',(0.,0.,1.));
#1047=DIRECTION('',(0.,-1.,0.));
#1048=DIRECTION('',(0.,1.,0.));
#1049=DIRECTION('',(0.,1.,0.));
#1050=DIRECTION('',(1.,0.,0.));
#1051=DIRECTION('',(0.,-1.,0.));
#1052=DIRECTION('',(0.,1.,0.));
#1053=DIRECTION('',(0.,0.,-1.));
#1054=DIRECTION('',(0.,0.,1.));
#1055=DIRECTION('',(0.,-1.,0.));
#1056=DIRECTION('',(0.,0.,1.));
#1057=DIRECTION('',(0.,-1.,0.));
#1058=DIRECTION('',(0.,1.,0.));
#1059=DIRECTION('',(0.,0.,1.));
#1060=DIRECTION('',(0.,-1.,0.));
#1061=DIRECTION('',(1.,0.,0.));
#1062=DIRECTION('',(0.,-1.,0.));
#1063=DIRECTION('',(0.,0.,-1.));
#1064=DIRECTION('',(0.,0.,1.));
#1065=DIRECTION('',(0.,-1.,0.));
#1066=DIRECTION('',(0.,0.,-1.));
#1067=DIRECTION('',(0.,1.,0.));
#1068=DIRECTION('',(0.,1.,0.));
#1069=DIRECTION('',(1.,0.,0.));
#1070=DIRECTION('',(0.,1.,0.));
#1071=DIRECTION('',(1.,0.,0.));
#1072=DIRECTION('',(0.,1.,0.));
#1073=DIRECTION('',(1.,0.,0.));
#1074=DIRECTION('',(0.,1.,0.));
#1075=DIRECTION('',(1.,0.,0.));
#1076=DIRECTION('',(0.,1.,0.));
#1077=DIRECTION('',(1.,0.,0.));
#1078=DIRECTION('',(0.,1.,0.));
#1079=DIRECTION('',(1.,0.,0.));
#1080=DIRECTION('',(0.,-1.,0.));
#1081=DIRECTION('',(-1.,0.,0.));
#1082=DIRECTION('',(0.,-1.,0.));
#1083=DIRECTION('',(-1.,0.,0.));
#1084=DIRECTION('',(0.,-1.,0.));
#1085=DIRECTION('',(1.,0.,0.));
#1086=DIRECTION('',(0.,-1.,0.));
#1087=DIRECTION('',(-1.,0.,0.));
#1088=DIRECTION('',(0.,-1.,0.));
#1089=DIRECTION('',(-1.,0.,0.));
#1090=DIRECTION('',(0.,-1.,0.));
#1091=DIRECTION('',(1.,0.,0.));
#1092=DIRECTION('',(0.,1.,0.));
#1093=DIRECTION('',(1.,0.,0.));
#1094=DIRECTION('',(0.,0.,1.));
#1095=DIRECTION('',(0.,-1.,0.));
#1096=DIRECTION('',(7.2280144832367E-16,0.,-1.));
#1097=DIRECTION('',(-1.,0.,-7.2280144832367E-16));
#1098=DIRECTION('',(0.,1.,0.));
#1099=DIRECTION('',(1.,0.,0.));
#1100=DIRECTION('',(0.,1.,0.));
#1101=DIRECTION('',(1.,0.,0.));
#1102=DIRECTION('',(0.,-1.,0.));
#1103=DIRECTION('',(-1.,0.,0.));
#1104=DIRECTION('',(0.,-1.,0.));
#1105=DIRECTION('',(-1.,0.,0.));
#1106=DIRECTION('',(0.,1.,0.));
#1107=DIRECTION('',(1.,0.,0.));
#1108=DIRECTION('',(0.,1.,0.));
#1109=DIRECTION('',(1.,0.,0.));
#1110=CARTESIAN_POINT('',(0.,0.,0.));
#1111=CARTESIAN_POINT('',(0.,0.,0.));
#1112=CARTESIAN_POINT('',(0.,0.,-7.28664845492675E-19));
#1113=CARTESIAN_POINT('',(0.0114,0.,-7.28664845492675E-19));
#1114=CARTESIAN_POINT('',(-0.00645,0.,6.12323399573677E-20));
#1115=CARTESIAN_POINT('',(-0.00745,0.,6.12323399573677E-20));
#1116=CARTESIAN_POINT('',(0.00645,0.,2.38592227640295E-19));
#1117=CARTESIAN_POINT('',(0.00545,0.,2.38592227640295E-19));
#1118=CARTESIAN_POINT('',(-0.00145,0.,0.0094));
#1119=CARTESIAN_POINT('',(-0.00145,0.,0.00955));
#1120=CARTESIAN_POINT('',(-0.00145,0.,0.00925));
#1121=CARTESIAN_POINT('',(4.33680868994202E-19,0.,0.00955));
#1122=CARTESIAN_POINT('',(0.00145,0.,0.00955));
#1123=CARTESIAN_POINT('',(0.00145,0.,0.0094));
#1124=CARTESIAN_POINT('',(0.00145,0.,0.00925));
#1125=CARTESIAN_POINT('',(2.16840434497101E-19,0.,0.00925));
#1126=CARTESIAN_POINT('',(-0.00145,0.,-0.0094));
#1127=CARTESIAN_POINT('',(-0.00145,0.,-0.00925));
#1128=CARTESIAN_POINT('',(-0.00145,0.,-0.00955));
#1129=CARTESIAN_POINT('',(0.,0.,-0.00925));
#1130=CARTESIAN_POINT('',(0.00145,0.,-0.00925));
#1131=CARTESIAN_POINT('',(0.00145,0.,-0.0094));
#1132=CARTESIAN_POINT('',(0.00145,0.,-0.00955));
#1133=CARTESIAN_POINT('',(2.16840434497101E-19,0.,-0.00955));
#1134=CARTESIAN_POINT('',(-1.7347234759768E-18,0.,-5.28753947568767E-19));
#1135=CARTESIAN_POINT('',(0.00375,0.,0.002));
#1136=CARTESIAN_POINT('',(0.00375,0.,-0.002));
#1137=CARTESIAN_POINT('',(0.00375,0.,8.67361737988404E-19));
#1138=CARTESIAN_POINT('',(0.,0.0239,-7.28664845492675E-19));
#1139=CARTESIAN_POINT('',(0.,0.0234,-7.28664845492675E-19));
#1140=CARTESIAN_POINT('',(0.0119,0.0234,-7.28664845492675E-19));
#1141=CARTESIAN_POINT('',(0.,0.0005,-7.28664845492675E-19));
#1142=CARTESIAN_POINT('',(0.0119,0.0005,-7.28664845492675E-19));
#1143=CARTESIAN_POINT('',(0.,0.0239,0.));
#1144=CARTESIAN_POINT('',(0.,0.0239,-7.28664845492675E-19));
#1145=CARTESIAN_POINT('',(0.0114,0.0239,-7.28664845492675E-19));
#1146=CARTESIAN_POINT('',(0.,0.0239,-1.31037207508767E-18));
#1147=CARTESIAN_POINT('',(0.0095,0.0239,-1.31037207508767E-18));
#1148=CARTESIAN_POINT('',(0.,0.0269,-1.31037207508767E-18));
#1149=CARTESIAN_POINT('',(0.,0.0264,-1.31037207508767E-18));
#1150=CARTESIAN_POINT('',(0.0095,0.0264,-1.31037207508767E-18));
#1151=CARTESIAN_POINT('',(0.,0.0269,0.));
#1152=CARTESIAN_POINT('',(0.,0.0269,-1.31037207508767E-18));
#1153=CARTESIAN_POINT('',(0.009,0.0269,-1.31037207508767E-18));
#1154=CARTESIAN_POINT('',(-0.00575,0.0269,-7.04171909509728E-20));
#1155=CARTESIAN_POINT('',(-0.0046,0.0269,-7.04171909509728E-20));
#1156=CARTESIAN_POINT('',(0.00575,0.0269,5.62993882723703E-20));
#1157=CARTESIAN_POINT('',(0.0069,0.0269,5.62993882723703E-20));
#1158=CARTESIAN_POINT('',(0.,0.0269,-1.49866152045657E-18));
#1159=CARTESIAN_POINT('',(0.003075,0.0269,-1.49866152045657E-18));
#1160=CARTESIAN_POINT('',(0.,0.0286,-1.49866152045657E-18));
#1161=CARTESIAN_POINT('',(0.,0.0281,-1.49866152045657E-18));
#1162=CARTESIAN_POINT('',(0.003075,0.0281,-1.49866152045657E-18));
#1163=CARTESIAN_POINT('',(0.,0.0286,0.));
#1164=CARTESIAN_POINT('',(0.,0.0286,-1.49866152045657E-18));
#1165=CARTESIAN_POINT('',(0.002575,0.0286,-1.49866152045657E-18));
#1166=CARTESIAN_POINT('',(0.,0.0286,-1.55989386041394E-18));
#1167=CARTESIAN_POINT('',(0.001,0.0286,-1.55989386041394E-18));
#1168=CARTESIAN_POINT('',(0.,0.0355,-1.55989386041394E-18));
#1169=CARTESIAN_POINT('',(0.,0.03525,-1.55989386041394E-18));
#1170=CARTESIAN_POINT('',(0.001,0.03525,-1.55989386041394E-18));
#1171=CARTESIAN_POINT('',(0.,0.0355,-8.67361737988404E-19));
#1172=CARTESIAN_POINT('',(0.,0.0355,-1.55989386041394E-18));
#1173=CARTESIAN_POINT('',(0.00075,0.0355,-1.55989386041394E-18));
#1174=CARTESIAN_POINT('',(0.00375,-0.0021,8.67361737988404E-19));
#1175=CARTESIAN_POINT('',(0.00375,-0.0016,0.002));
#1176=CARTESIAN_POINT('',(0.00375,-0.00189691215957929,0.00136906166089402));
#1177=CARTESIAN_POINT('',(0.00375,-0.0021,0.000702954719884195));
#1178=CARTESIAN_POINT('',(0.00375,-0.0021,1.28483331140833E-19));
#1179=CARTESIAN_POINT('',(0.00375,-0.0016,0.002));
#1180=CARTESIAN_POINT('',(0.00375,-0.0021,2.84397681795362E-19));
#1181=CARTESIAN_POINT('',(0.00375,-0.0021,2.84397681795361E-19));
#1182=CARTESIAN_POINT('',(0.00375,-0.0021,-0.000698699202358746));
#1183=CARTESIAN_POINT('',(0.00375,-0.00189648307859633,-0.00136997345798279));
#1184=CARTESIAN_POINT('',(0.00375,-0.0016,-0.002));
#1185=CARTESIAN_POINT('',(0.00375,-0.0016,-0.002));
#1186=CARTESIAN_POINT('',(0.00375,-0.0021,-0.002));
#1187=CARTESIAN_POINT('',(0.00375,-0.0021,0.002));
#1188=CARTESIAN_POINT('',(-1.7347234759768E-18,-0.0021,-5.28753947568767E-19));
#1189=CARTESIAN_POINT('',(-1.7347234759768E-18,-0.0016,-5.28753947568767E-19));
#1190=CARTESIAN_POINT('',(0.,-0.0021,0.));
#1191=CARTESIAN_POINT('',(-1.7347234759768E-18,-0.0021,-5.28753947568767E-19));
#1192=CARTESIAN_POINT('',(-1.7347234759768E-18,-0.0021,-4.675216076114E-19));
#1193=CARTESIAN_POINT('',(-0.001,-0.0021,-4.675216076114E-19));
#1194=CARTESIAN_POINT('',(-1.7347234759768E-18,-0.0031,-4.675216076114E-19));
#1195=CARTESIAN_POINT('',(-1.7347234759768E-18,-0.00285,-4.675216076114E-19));
#1196=CARTESIAN_POINT('',(-0.001,-0.00285,-4.675216076114E-19));
#1197=CARTESIAN_POINT('',(-0.00025,-0.0031,-8.67361737988404E-19));
#1198=CARTESIAN_POINT('',(-1.7347234759768E-18,-0.0031,-4.675216076114E-19));
#1199=CARTESIAN_POINT('',(-0.000750000000000002,-0.0031,-4.675216076114E-19));
#1200=CARTESIAN_POINT('',(0.,-0.005,-0.00925));
#1201=CARTESIAN_POINT('',(0.,-0.00375,-0.00925));
#1202=CARTESIAN_POINT('',(0.,-0.0045,-0.00925));
#1203=CARTESIAN_POINT('',(-0.00145,-0.005,-0.00925));
#1204=CARTESIAN_POINT('',(-0.00145,-0.00355,-0.00925));
#1205=CARTESIAN_POINT('',(-1.08420217248551E-19,-0.00355,-0.00925));
#1206=CARTESIAN_POINT('',(0.00145,-0.00355,-0.00925));
#1207=CARTESIAN_POINT('',(0.00145,-0.005,-0.00925));
#1208=CARTESIAN_POINT('',(-0.00145,-0.005,-0.0094));
#1209=CARTESIAN_POINT('',(-0.00145,-0.005,-0.00955));
#1210=CARTESIAN_POINT('',(-0.00145,-0.00355,-0.00955));
#1211=CARTESIAN_POINT('',(-0.00145,-0.00355,-0.00925));
#1212=CARTESIAN_POINT('',(2.16840434497101E-19,-0.005,-0.00955));
#1213=CARTESIAN_POINT('',(0.,-0.00375,-0.00955));
#1214=CARTESIAN_POINT('',(0.,-0.003,-0.00955));
#1215=CARTESIAN_POINT('',(1.0842021724855E-19,-0.00355,-0.00955));
#1216=CARTESIAN_POINT('',(0.00145,-0.00355,-0.00955));
#1217=CARTESIAN_POINT('',(0.00145,-0.005,-0.00955));
#1218=CARTESIAN_POINT('',(0.00145,-0.005,-0.0094));
#1219=CARTESIAN_POINT('',(0.00145,-0.00355,-0.0094));
#1220=CARTESIAN_POINT('',(4.33680868994202E-19,-0.005,0.00955));
#1221=CARTESIAN_POINT('',(0.,-0.00375,0.00955));
#1222=CARTESIAN_POINT('',(0.,-0.0045,0.00955));
#1223=CARTESIAN_POINT('',(6.50521303491303E-19,-0.00355,0.00955));
#1224=CARTESIAN_POINT('',(-0.00145,-0.00355,0.00955));
#1225=CARTESIAN_POINT('',(0.00145,-0.00355,0.00955));
#1226=CARTESIAN_POINT('',(0.00145,-0.005,0.00955));
#1227=CARTESIAN_POINT('',(-0.00145,-0.005,0.00955));
#1228=CARTESIAN_POINT('',(-0.00145,-0.005,0.0094));
#1229=CARTESIAN_POINT('',(-0.00145,-0.005,0.00925));
#1230=CARTESIAN_POINT('',(-0.00145,-0.00355,0.00925));
#1231=CARTESIAN_POINT('',(-0.00145,-0.00355,0.00955));
#1232=CARTESIAN_POINT('',(2.16840434497101E-19,-0.005,0.00925));
#1233=CARTESIAN_POINT('',(0.,-0.00375,0.00925));
#1234=CARTESIAN_POINT('',(0.,-0.0045,0.00925));
#1235=CARTESIAN_POINT('',(0.00145,-0.005,0.00925));
#1236=CARTESIAN_POINT('',(0.00145,-0.00355,0.00925));
#1237=CARTESIAN_POINT('',(6.50521303491303E-19,-0.00355,0.00925));
#1238=CARTESIAN_POINT('',(0.00145,-0.005,0.0094));
#1239=CARTESIAN_POINT('',(0.00145,-0.00355,0.0094));
#1240=CARTESIAN_POINT('',(0.,-0.00375,0.00755));
#1241=CARTESIAN_POINT('',(0.,-0.00375,-0.00755));
#1242=CARTESIAN_POINT('',(0.00575,0.0229,5.62993882723703E-20));
#1243=CARTESIAN_POINT('',(0.00575,0.0229,5.62993882723703E-20));
#1244=CARTESIAN_POINT('',(0.0069,0.0229,5.62993882723703E-20));
#1245=CARTESIAN_POINT('',(0.,0.0229,0.));
#1246=CARTESIAN_POINT('',(-0.00575,0.0229,-7.04171909509728E-20));
#1247=CARTESIAN_POINT('',(-0.00575,0.0229,-7.04171909509728E-20));
#1248=CARTESIAN_POINT('',(-0.0046,0.0229,-7.04171909509728E-20));
#1249=CARTESIAN_POINT('',(0.,0.0229,0.));
#1250=CARTESIAN_POINT('',(0.00645,0.004,2.38592227640295E-19));
#1251=CARTESIAN_POINT('',(0.00645,0.004,2.38592227640295E-19));
#1252=CARTESIAN_POINT('',(0.00545,0.004,2.38592227640295E-19));
#1253=CARTESIAN_POINT('',(0.,0.004,0.));
#1254=CARTESIAN_POINT('',(-0.00645,0.004,6.12323399573677E-20));
#1255=CARTESIAN_POINT('',(-0.00645,0.004,6.12323399573677E-20));
#1256=CARTESIAN_POINT('',(-0.00745,0.004,6.12323399573677E-20));
#1257=CARTESIAN_POINT('',(0.,0.004,0.));
#1258=CARTESIAN_POINT('',(0.,0.0005,-7.28664845492675E-19));
#1259=CARTESIAN_POINT('',(6.50521303491303E-19,-0.00355,0.));
#1260=CARTESIAN_POINT('',(0.,-0.00355,-0.0094));
#1261=CARTESIAN_POINT('',(-1.7347234759768E-18,-0.0021,-5.28753947568767E-19));
#1262=CARTESIAN_POINT('',(-1.7347234759768E-18,-0.0031,-4.675216076114E-19));
#1263=CARTESIAN_POINT('',(0.,0.0355,-1.55989386041394E-18));
#1264=CARTESIAN_POINT('',(0.,0.0286,-1.49866152045657E-18));
#1265=CARTESIAN_POINT('',(0.,0.0264,-1.31037207508767E-18));
#1266=CARTESIAN_POINT('',(0.,0.0234,-7.28664845492675E-19));
#1267=MECHANICAL_DESIGN_GEOMETRIC_PRESENTATION_REPRESENTATION('',(#594,
#511,#512,#513,#514,#515,#516,#517,#518,#519,#520,#521,#522,#523,#524,#525,
#526,#527,#528,#529,#530,#531,#532,#533,#534,#535,#536,#537,#538,#539,#540,
#541,#542,#543,#544,#545,#546,#547,#548,#549,#550,#551),#1268);
#1268=(
GEOMETRIC_REPRESENTATION_CONTEXT(3)
GLOBAL_UNCERTAINTY_ASSIGNED_CONTEXT((#1269))
GLOBAL_UNIT_ASSIGNED_CONTEXT((#1272,#1271,#1270))
REPRESENTATION_CONTEXT('Part 1','TOP_LEVEL_ASSEMBLY_PART')
);
#1269=UNCERTAINTY_MEASURE_WITH_UNIT(LENGTH_MEASURE(2.E-5),#1272,
'DISTANCE_ACCURACY_VALUE','Maximum Tolerance applied to model');
#1270=(
NAMED_UNIT(*)
SI_UNIT($,.STERADIAN.)
SOLID_ANGLE_UNIT()
);
#1271=(
NAMED_UNIT(*)
PLANE_ANGLE_UNIT()
SI_UNIT($,.RADIAN.)
);
#1272=(
LENGTH_UNIT()
NAMED_UNIT(*)
SI_UNIT($,.METRE.)
);
#1273=PRODUCT_DEFINITION_SHAPE('','',#1274);
#1274=PRODUCT_DEFINITION('','',#1276,#1275);
#1275=PRODUCT_DEFINITION_CONTEXT('',#1282,'design');
#1276=PRODUCT_DEFINITION_FORMATION_WITH_SPECIFIED_SOURCE('','',#1278,
 .NOT_KNOWN.);
#1277=PRODUCT_RELATED_PRODUCT_CATEGORY('','',(#1278));
#1278=PRODUCT('Part 1','Part 1','Part 1',(#1280));
#1279=PRODUCT_CATEGORY('','');
#1280=PRODUCT_CONTEXT('',#1282,'mechanical');
#1281=APPLICATION_PROTOCOL_DEFINITION('international standard',
'ap242_managed_model_based_3d_engineering',2020,#1282);
#1282=APPLICATION_CONTEXT('managed model based 3d engineering');
ENDSEC;
END-ISO-10303-21;
